<svg version="1.1" id="Layer_1" xmlns="http://www.w3.org/2000/svg" xmlns:xlink="http://www.w3.org/1999/xlink" x="0px" y="0px"
	 width="100%" viewBox="0 0 462 352" enable-background="new 0 0 462 352" xml:space="preserve">
<path fill="#010101" opacity="1.000000" stroke="none" 
	d="
M1.000000,125.000000 
	C1.000000,83.345978 1.000000,42.191948 1.000000,1.018962 
	C154.940063,1.018962 308.880127,1.018962 462.910095,1.018962 
	C462.910095,118.237305 462.910095,235.474701 462.910095,352.856049 
	C309.000092,352.856049 155.000061,352.856049 1.000000,352.856049 
	C1.000000,277.119965 1.000000,201.309982 1.000000,125.000000 
M216.721695,19.984232 
	C182.822281,21.051142 148.909332,21.818916 115.031021,23.352180 
	C103.643997,23.867537 92.326942,26.215265 81.021797,28.003038 
	C78.855156,28.345665 76.893867,29.986864 74.837845,31.028973 
	C74.861885,31.688374 74.885933,32.347775 74.909973,33.007172 
	C77.717567,34.034733 80.478233,35.763241 83.341789,35.954956 
	C91.112839,36.475220 98.936905,36.653557 106.723251,36.417206 
	C139.456970,35.423576 172.184616,34.228798 204.799011,33.808838 
	C203.300095,40.199371 199.188751,42.410858 192.862610,41.662777 
	C190.083862,41.334190 187.216721,41.758701 184.389511,41.833424 
	C157.613342,42.541088 130.836151,43.214611 104.062675,44.012875 
	C101.831741,44.079388 99.625801,44.984352 96.259323,45.766808 
	C98.247772,47.037258 98.885826,47.588203 99.625786,47.885387 
	C100.853340,48.378399 102.124214,48.950645 103.415367,49.068913 
	C114.975197,50.127796 126.543457,51.094627 137.732010,52.647511 
	C136.374039,53.593891 134.569138,54.255173 133.747269,55.543541 
	C131.784988,58.619637 128.484650,62.381844 129.082230,65.139381 
	C129.744522,68.195580 133.737946,71.666496 137.008652,72.740639 
	C141.351517,74.166870 146.488541,74.105713 151.119125,73.473534 
	C156.142365,72.787743 160.799500,70.194794 161.924515,64.570442 
	C163.111450,58.636475 159.063461,55.502487 154.533813,52.908787 
	C154.112946,52.667801 153.764496,52.300396 154.346298,51.856186 
	C169.519089,51.490356 184.691895,51.124527 199.169235,51.170685 
	C197.998596,52.086521 196.736664,52.907650 195.672241,53.933678 
	C189.170761,60.200699 190.317398,67.244041 198.610214,70.784668 
	C206.233612,74.039474 213.803772,73.425919 221.967758,69.612358 
	C230.812820,71.303749 239.454819,70.204422 248.615051,68.106972 
	C253.968964,72.247292 260.184662,73.099670 266.518829,71.931091 
	C272.521240,70.823723 276.264252,66.431137 278.514160,61.016991 
	C280.334473,56.636639 278.568726,52.953018 276.091705,49.743969 
	C286.547913,49.626289 297.004120,49.508610 306.879211,49.780567 
	C304.381989,51.384991 301.638184,52.709301 299.435486,54.648293 
	C293.676788,59.717567 294.117737,65.497398 300.325836,69.950302 
	C306.940125,74.694542 316.742004,75.048248 323.575470,69.730789 
	C326.702393,67.297577 330.297791,63.012184 330.214417,59.652843 
	C330.142487,56.755768 325.262329,53.861740 322.285553,51.216610 
	C321.253571,50.299599 319.554138,50.133667 319.036896,49.329376 
	C339.622864,49.606628 360.212189,49.743690 380.792938,50.238171 
	C387.869659,50.408203 394.470032,52.446938 399.873535,57.592022 
	C401.429260,59.073315 403.880585,59.614033 405.921265,60.585991 
	C406.247894,60.182587 406.574524,59.779182 406.901154,59.375778 
	C405.949097,56.519531 404.997009,53.663284 404.761536,50.855595 
	C411.974030,54.213799 416.047394,59.921333 416.854645,67.758415 
	C417.889008,77.800293 418.641602,87.871193 419.061920,97.852325 
	C418.766327,97.934738 418.468170,98.006523 418.046539,97.173485 
	C416.679413,86.925400 417.367432,76.232063 411.601227,66.761497 
	C410.111725,69.974052 409.156494,73.136444 409.031891,76.331238 
	C408.376587,93.138596 407.630981,109.951302 407.472717,126.767387 
	C407.096436,166.757706 407.308716,206.755325 406.676666,246.740402 
	C406.483002,258.990387 405.097382,271.355347 402.833069,283.399841 
	C400.716400,294.658997 391.459625,300.783752 379.901520,300.840912 
	C304.752838,301.212524 229.604340,301.621857 154.455612,301.982758 
	C129.796738,302.101166 105.137299,302.096191 80.478233,302.183594 
	C74.134117,302.206085 69.641434,299.137329 66.784485,293.763641 
	C65.162193,290.712219 63.586994,287.409332 63.048996,284.050232 
	C61.420059,273.879639 59.451500,263.650940 59.156582,253.400574 
	C58.313408,224.094421 57.692116,194.760483 58.011517,165.448669 
	C58.296211,139.322433 59.563591,113.187057 61.177383,87.103973 
	C61.919621,75.107475 64.602791,63.295494 74.644302,54.800457 
	C75.965378,53.682831 76.483902,51.616543 77.374130,49.989632 
	C75.349739,49.737030 73.119583,48.804955 71.335327,49.345295 
	C61.818958,52.227211 54.667107,58.235054 52.106430,67.946930 
	C49.489552,77.871994 47.061752,88.047585 46.347099,98.239426 
	C42.919266,147.124710 41.334839,196.092117 44.300915,245.052231 
	C45.028679,257.065247 47.549358,269.140289 50.696358,280.795135 
	C55.158600,297.320862 66.694534,307.522095 83.453476,310.831085 
	C93.696083,312.853455 104.204475,314.473145 114.609459,314.570648 
	C166.929184,315.061066 219.254120,315.016022 271.577332,315.104248 
	C291.731995,315.138214 311.886932,315.027496 331.918701,315.413239 
	C331.918701,315.413239 331.850708,315.855774 330.944641,315.984955 
	C306.313202,316.964203 281.684570,318.020935 257.049744,318.905853 
	C211.774002,320.532257 166.498840,322.197357 121.214691,323.555054 
	C103.432625,324.088165 85.588707,325.414490 67.887405,322.031677 
	C51.111217,318.825745 41.556713,309.399078 39.235928,293.206726 
	C38.552238,288.436554 38.184673,283.587494 38.114918,278.768188 
	C37.584465,242.121048 36.886002,205.472992 36.795147,168.823853 
	C36.719627,138.360138 35.946243,107.851624 39.927933,77.503998 
	C41.913685,62.368996 47.019711,49.169956 60.601753,40.593307 
	C61.845749,39.807762 63.035942,38.737175 63.852673,37.529488 
	C64.717308,36.250965 65.105614,34.650314 65.701973,33.190365 
	C64.019783,32.803291 62.212444,31.830866 60.682922,32.157871 
	C57.970284,32.737820 55.244442,33.795250 52.842579,35.198116 
	C41.163956,42.019314 34.282661,52.653996 30.198797,65.166649 
	C25.291172,80.203232 24.285320,95.897278 24.104244,111.527603 
	C23.708740,145.667328 23.751820,179.814514 23.905138,213.957352 
	C24.006842,236.605820 24.192366,259.269318 25.127823,281.893494 
	C25.809351,298.376343 32.813328,311.983307 46.880245,321.463104 
	C49.758797,323.402985 52.192570,325.993927 55.023773,328.015259 
	C58.475914,330.479919 61.864536,333.442261 65.763947,334.771942 
	C71.050911,336.574799 76.791451,337.890106 82.346313,337.923126 
	C110.804428,338.092529 139.283096,338.371643 167.721603,337.516174 
	C223.822021,335.828522 279.901764,333.446808 335.987793,331.292267 
	C353.113281,330.634430 370.299255,330.484985 387.335358,328.838440 
	C408.600616,326.783142 423.484131,315.339630 428.784546,294.253265 
	C432.003571,281.447266 433.745087,268.146057 434.847443,254.958420 
	C436.941956,229.902054 438.570770,204.785278 439.520996,179.660599 
	C440.533936,152.877747 440.960175,126.053177 440.735046,99.254448 
	C440.664032,90.801811 437.975555,82.294495 435.829498,73.981438 
	C435.162415,71.397522 432.763733,68.217606 430.405914,67.347076 
	C426.439697,65.882706 424.625519,63.241924 423.049438,59.866032 
	C418.349030,49.798141 410.945892,42.200367 400.686279,38.139221 
	C392.242096,34.796673 383.483582,31.507267 374.572510,30.228865 
	C351.197205,26.875393 327.710602,24.036188 304.175842,22.140097 
	C285.779907,20.658020 267.245483,20.895702 248.146912,20.007469 
	C237.943237,14.579155 227.761658,15.556324 216.721695,19.984232 
M376.482605,65.082039 
	C374.092102,58.282040 368.362366,54.320312 360.443451,53.992031 
	C352.677704,53.670097 344.000031,58.095264 341.504791,63.774727 
	C340.109161,66.951408 340.341309,69.896324 343.201660,72.325745 
	C350.742798,78.730827 359.337616,79.775528 368.440277,76.883766 
	C373.568390,75.254646 376.995453,71.806107 376.482605,65.082039 
M79.450844,55.815643 
	C78.188789,56.603653 76.843849,57.285992 75.679855,58.199013 
	C71.815598,61.230072 69.116463,65.011757 70.228729,70.152145 
	C71.343651,75.304749 75.428078,77.638664 80.154633,78.812721 
	C88.469131,80.877983 97.880692,76.807709 102.946922,69.132118 
	C106.248070,64.130714 105.556580,60.234272 100.457001,56.876965 
	C93.997276,52.624210 87.146233,52.354538 79.450844,55.815643 
z"/>
<path fill="#F4F2EC" opacity="1.000000" stroke="none" 
	d="
M419.515625,97.929588 
	C418.641602,87.871193 417.889008,77.800293 416.854645,67.758415 
	C416.047394,59.921333 411.974030,54.213799 404.375732,50.861389 
	C403.989929,50.867184 404.053741,50.917706 403.955261,50.606728 
	C403.241882,50.227211 402.626984,50.158665 401.688904,49.975506 
	C393.494446,41.325184 383.003967,38.677017 372.157288,38.087448 
	C355.450836,37.179367 338.693390,37.209167 321.739380,36.488441 
	C304.061584,35.441940 286.601990,34.748089 268.925873,33.787628 
	C264.619507,27.320843 259.427063,22.816866 251.640808,22.047766 
	C250.639236,21.948832 249.726486,20.950775 248.772583,20.369232 
	C267.245483,20.895702 285.779907,20.658020 304.175842,22.140097 
	C327.710602,24.036188 351.197205,26.875393 374.572510,30.228865 
	C383.483582,31.507267 392.242096,34.796673 400.686279,38.139221 
	C410.945892,42.200367 418.349030,49.798141 423.049438,59.866032 
	C424.625519,63.241924 426.439697,65.882706 430.405914,67.347076 
	C432.763733,68.217606 435.162415,71.397522 435.829498,73.981438 
	C437.975555,82.294495 440.664032,90.801811 440.735046,99.254448 
	C440.960175,126.053177 440.533936,152.877747 439.520996,179.660599 
	C438.570770,204.785278 436.941956,229.902054 434.847443,254.958420 
	C433.745087,268.146057 432.003571,281.447266 428.784546,294.253265 
	C423.484131,315.339630 408.600616,326.783142 387.335358,328.838440 
	C370.299255,330.484985 353.113281,330.634430 335.987793,331.292267 
	C279.901764,333.446808 223.822021,335.828522 167.721603,337.516174 
	C139.283096,338.371643 110.804428,338.092529 82.346313,337.923126 
	C76.791451,337.890106 71.050911,336.574799 65.763947,334.771942 
	C61.864536,333.442261 58.475914,330.479919 55.023773,328.015259 
	C52.192570,325.993927 49.758797,323.402985 46.880245,321.463104 
	C32.813328,311.983307 25.809351,298.376343 25.127823,281.893494 
	C24.192366,259.269318 24.006842,236.605820 23.905138,213.957352 
	C23.751820,179.814514 23.708740,145.667328 24.104244,111.527603 
	C24.285320,95.897278 25.291172,80.203232 30.198797,65.166649 
	C34.282661,52.653996 41.163956,42.019314 52.842579,35.198116 
	C55.244442,33.795250 57.970284,32.737820 60.682922,32.157871 
	C62.212444,31.830866 64.019783,32.803291 65.701973,33.190365 
	C65.105614,34.650314 64.717308,36.250965 63.852673,37.529488 
	C63.035942,38.737175 61.845749,39.807762 60.601753,40.593307 
	C47.019711,49.169956 41.913685,62.368996 39.927933,77.503998 
	C35.946243,107.851624 36.719627,138.360138 36.795147,168.823853 
	C36.886002,205.472992 37.584465,242.121048 38.114918,278.768188 
	C38.184673,283.587494 38.552238,288.436554 39.235928,293.206726 
	C41.556713,309.399078 51.111217,318.825745 67.887405,322.031677 
	C85.588707,325.414490 103.432625,324.088165 121.214691,323.555054 
	C166.498840,322.197357 211.774002,320.532257 257.049744,318.905853 
	C281.684570,318.020935 306.313202,316.964203 331.874146,315.986755 
	C338.935944,315.637512 345.068237,315.286469 351.645691,314.992004 
	C365.907166,313.821930 379.732880,312.689484 393.533813,311.309143 
	C397.475189,310.914886 401.387665,309.969208 405.237610,308.981049 
	C411.820740,307.291382 415.268402,302.775330 415.925232,296.119843 
	C417.298065,282.209503 419.604614,268.302673 419.749207,254.375946 
	C420.231354,207.944183 419.928040,161.504242 420.020233,114.602539 
	C419.915039,108.734955 419.715332,103.332268 419.515625,97.929588 
z"/>
<path fill="#0123FA" opacity="1.000000" stroke="none" 
	d="
M419.925720,115.067444 
	C419.928040,161.504242 420.231354,207.944183 419.749207,254.375946 
	C419.604614,268.302673 417.298065,282.209503 415.925232,296.119843 
	C415.268402,302.775330 411.820740,307.291382 405.237610,308.981049 
	C401.387665,309.969208 397.475189,310.914886 393.533813,311.309143 
	C379.732880,312.689484 365.907166,313.821930 351.358154,314.658020 
	C344.430908,314.505890 338.236328,314.744293 332.041748,314.982697 
	C311.886932,315.027496 291.731995,315.138214 271.577332,315.104248 
	C219.254120,315.016022 166.929184,315.061066 114.609459,314.570648 
	C104.204475,314.473145 93.696083,312.853455 83.453476,310.831085 
	C66.694534,307.522095 55.158600,297.320862 50.696358,280.795135 
	C47.549358,269.140289 45.028679,257.065247 44.300915,245.052231 
	C41.334839,196.092117 42.919266,147.124710 46.347099,98.239426 
	C47.061752,88.047585 49.489552,77.871994 52.106430,67.946930 
	C54.667107,58.235054 61.818958,52.227211 71.335327,49.345295 
	C73.119583,48.804955 75.349739,49.737030 77.374130,49.989632 
	C76.483902,51.616543 75.965378,53.682831 74.644302,54.800457 
	C64.602791,63.295494 61.919621,75.107475 61.177383,87.103973 
	C59.563591,113.187057 58.296211,139.322433 58.011517,165.448669 
	C57.692116,194.760483 58.313408,224.094421 59.156582,253.400574 
	C59.451500,263.650940 61.420059,273.879639 63.048996,284.050232 
	C63.586994,287.409332 65.162193,290.712219 66.784485,293.763641 
	C69.641434,299.137329 74.134117,302.206085 80.478233,302.183594 
	C105.137299,302.096191 129.796738,302.101166 154.455612,301.982758 
	C229.604340,301.621857 304.752838,301.212524 379.901520,300.840912 
	C391.459625,300.783752 400.716400,294.658997 402.833069,283.399841 
	C405.097382,271.355347 406.483002,258.990387 406.676666,246.740402 
	C407.308716,206.755325 407.096436,166.757706 407.472717,126.767387 
	C407.630981,109.951302 408.376587,93.138596 409.031891,76.331238 
	C409.156494,73.136444 410.111725,69.974052 411.601227,66.761497 
	C417.367432,76.232063 416.679413,86.925400 418.047272,98.052910 
	C418.673920,104.310707 419.299805,109.689072 419.925720,115.067444 
z"/>
<path fill="#0224FA" opacity="1.000000" stroke="none" 
	d="
M321.957581,36.841091 
	C338.693390,37.209167 355.450836,37.179367 372.157288,38.087448 
	C383.003967,38.677017 393.494446,41.325184 401.867371,50.295780 
	C402.930603,50.793015 403.492188,50.855358 404.053741,50.917706 
	C404.053741,50.917706 403.989929,50.867184 404.017456,50.837112 
	C404.997009,53.663284 405.949097,56.519531 406.901154,59.375778 
	C406.574524,59.779182 406.247894,60.182587 405.921265,60.585991 
	C403.880585,59.614033 401.429260,59.073315 399.873535,57.592022 
	C394.470032,52.446938 387.869659,50.408203 380.792938,50.238171 
	C360.212189,49.743690 339.622864,49.606628 318.286377,49.458942 
	C314.177338,49.522648 310.818848,49.456787 307.460327,49.390926 
	C297.004120,49.508610 286.547913,49.626289 275.270752,49.822067 
	C271.815613,49.774662 269.066681,49.391930 267.707367,52.961582 
	C263.939026,56.492264 260.461395,59.838638 256.651550,63.259743 
	C253.544846,64.795822 250.770401,66.257179 247.995941,67.718536 
	C239.454819,70.204422 230.812820,71.303749 221.233292,69.393097 
	C217.172623,67.723946 213.846436,66.274055 210.357101,64.523224 
	C208.481598,62.481777 206.769211,60.741253 204.975830,58.654186 
	C204.111374,56.547138 203.478622,54.695129 202.486679,53.061180 
	C201.910858,52.112667 200.757935,51.514500 199.864685,50.758694 
	C184.691895,51.124527 169.519089,51.490356 153.442871,51.918648 
	C147.729370,52.016922 142.919312,52.052734 138.109238,52.088539 
	C126.543457,51.094627 114.975197,50.127796 103.415367,49.068913 
	C102.124214,48.950645 100.853340,48.378399 99.625786,47.885387 
	C98.885826,47.588203 98.247772,47.037258 96.259323,45.766808 
	C99.625801,44.984352 101.831741,44.079388 104.062675,44.012875 
	C130.836151,43.214611 157.613342,42.541088 184.389511,41.833424 
	C187.216721,41.758701 190.083862,41.334190 192.862610,41.662777 
	C199.188751,42.410858 203.300095,40.199371 205.127991,33.248268 
	C209.502106,28.496071 213.547256,24.304440 217.592407,20.112812 
	C227.761658,15.556324 237.943237,14.579155 248.459747,20.188351 
	C249.726486,20.950775 250.639236,21.948832 251.640808,22.047766 
	C259.427063,22.816866 264.619507,27.320843 268.951996,34.159225 
	C270.152374,37.717041 271.553955,39.358097 275.244141,39.127773 
	C290.802246,38.156715 306.384308,37.569031 321.957581,36.841091 
M257.728729,33.024643 
	C257.152527,26.908512 252.704041,26.146658 247.765213,24.839184 
	C237.610321,22.150833 227.859375,24.762091 221.217850,33.296322 
	C217.150253,38.207287 214.109924,43.433578 216.027252,50.893272 
	C217.720215,56.246529 221.432281,58.960026 227.658264,59.607708 
	C243.267303,60.385342 257.609650,48.051495 257.728729,33.024643 
z"/>
<path fill="#F4F2EB" opacity="1.000000" stroke="none" 
	d="
M217.157043,20.048521 
	C213.547256,24.304440 209.502106,28.496071 205.185730,32.897678 
	C172.184616,34.228798 139.456970,35.423576 106.723251,36.417206 
	C98.936905,36.653557 91.112839,36.475220 83.341789,35.954956 
	C80.478233,35.763241 77.717567,34.034733 74.909973,33.007172 
	C74.885933,32.347775 74.861885,31.688374 74.837845,31.028973 
	C76.893867,29.986864 78.855156,28.345665 81.021797,28.003038 
	C92.326942,26.215265 103.643997,23.867537 115.031021,23.352180 
	C148.909332,21.818916 182.822281,21.051142 217.157043,20.048521 
z"/>
<path fill="#F1EFE8" opacity="1.000000" stroke="none" 
	d="
M376.565430,65.458839 
	C376.995453,71.806107 373.568390,75.254646 368.440277,76.883766 
	C359.337616,79.775528 350.742798,78.730827 343.201660,72.325745 
	C340.341309,69.896324 340.109161,66.951408 341.504791,63.774727 
	C344.000031,58.095264 352.677704,53.670097 360.443451,53.992031 
	C368.362366,54.320312 374.092102,58.282040 376.565430,65.458839 
M362.365509,68.800385 
	C363.088562,67.717674 364.406830,66.635490 364.407806,65.552139 
	C364.409637,63.450596 363.670898,61.348392 363.239044,59.246471 
	C361.392090,59.879879 359.214996,60.102303 357.783173,61.252491 
	C356.058929,62.637592 354.694611,64.678169 353.713226,66.696892 
	C353.188110,67.777046 353.303192,69.844826 354.031891,70.665039 
	C354.739655,71.461647 356.677856,71.609505 357.935303,71.353249 
	C359.300476,71.075035 360.503662,70.001930 362.365509,68.800385 
z"/>
<path fill="#F0EEE8" opacity="1.000000" stroke="none" 
	d="
M307.169769,49.585747 
	C310.818848,49.456787 314.177338,49.522648 317.847717,49.606590 
	C319.554138,50.133667 321.253571,50.299599 322.285553,51.216610 
	C325.262329,53.861740 330.142487,56.755768 330.214417,59.652843 
	C330.297791,63.012184 326.702393,67.297577 323.575470,69.730789 
	C316.742004,75.048248 306.940125,74.694542 300.325836,69.950302 
	C294.117737,65.497398 293.676788,59.717567 299.435486,54.648293 
	C301.638184,52.709301 304.381989,51.384991 307.169769,49.585747 
M314.832031,62.319099 
	C315.642609,61.294086 316.721039,60.377190 317.190460,59.214462 
	C317.686615,57.985474 317.602692,56.522289 317.772186,55.161407 
	C316.257690,55.076527 314.544250,54.490517 313.264984,54.998276 
	C308.979218,56.699356 306.592651,61.630070 307.770721,67.011360 
	C310.129456,65.511261 312.215149,64.184799 314.832031,62.319099 
z"/>
<path fill="#F1EFE8" opacity="1.000000" stroke="none" 
	d="
M137.920624,52.368027 
	C142.919312,52.052734 147.729370,52.016922 152.960938,51.986397 
	C153.764496,52.300396 154.112946,52.667801 154.533813,52.908787 
	C159.063461,55.502487 163.111450,58.636475 161.924515,64.570442 
	C160.799500,70.194794 156.142365,72.787743 151.119125,73.473534 
	C146.488541,74.105713 141.351517,74.166870 137.008652,72.740639 
	C133.737946,71.666496 129.744522,68.195580 129.082230,65.139381 
	C128.484650,62.381844 131.784988,58.619637 133.747269,55.543541 
	C134.569138,54.255173 136.374039,53.593891 137.920624,52.368027 
M146.796341,65.634186 
	C148.297409,63.951569 150.389755,62.487762 151.118210,60.519241 
	C151.735214,58.851868 150.774750,56.600750 150.512375,54.607952 
	C148.786575,55.128292 146.871017,55.340942 145.388245,56.255363 
	C143.900635,57.172775 142.436432,58.597111 141.703033,60.149399 
	C140.792953,62.075687 140.644302,64.361732 140.166763,66.492386 
	C142.143021,66.332443 144.119278,66.172501 146.796341,65.634186 
z"/>
<path fill="#EEECE5" opacity="1.000000" stroke="none" 
	d="
M79.782173,55.630028 
	C87.146233,52.354538 93.997276,52.624210 100.457001,56.876965 
	C105.556580,60.234272 106.248070,64.130714 102.946922,69.132118 
	C97.880692,76.807709 88.469131,80.877983 80.154633,78.812721 
	C75.428078,77.638664 71.343651,75.304749 70.228729,70.152145 
	C69.116463,65.011757 71.815598,61.230072 75.679855,58.199013 
	C76.843849,57.285992 78.188789,56.603653 79.782173,55.630028 
M80.341034,73.167381 
	C86.473526,74.886276 95.170151,70.390259 96.718040,64.533279 
	C97.608917,61.162361 96.434937,58.494339 92.851212,57.681923 
	C86.003899,56.129681 77.523186,65.870750 80.341034,73.167381 
z"/>
<path fill="#EFEEE9" opacity="1.000000" stroke="none" 
	d="
M267.998108,52.777275 
	C269.066681,49.391930 271.815613,49.774662 274.805145,49.928566 
	C278.568726,52.953018 280.334473,56.636639 278.514160,61.016991 
	C276.264252,66.431137 272.521240,70.823723 266.518829,71.931091 
	C260.184662,73.099670 253.968964,72.247292 248.305496,67.912750 
	C250.770401,66.257179 253.544846,64.795822 256.661743,63.601677 
	C257.270691,64.411972 257.467285,65.376099 257.814423,65.433762 
	C261.801025,66.095886 269.793030,59.734455 269.864960,55.694057 
	C269.882080,54.733173 268.653656,53.750126 267.998108,52.777275 
z"/>
<path fill="#EDEBE6" opacity="1.000000" stroke="none" 
	d="
M199.516968,50.964687 
	C200.757935,51.514500 201.910858,52.112667 202.486679,53.061180 
	C203.478622,54.695129 204.111374,56.547138 204.736511,58.937462 
	C204.245987,61.530399 203.913788,63.493507 203.581589,65.456619 
	C205.606613,65.403389 207.632477,65.368240 209.655777,65.276894 
	C209.950150,65.263603 210.232376,64.981743 210.520233,64.824158 
	C213.846436,66.274055 217.172623,67.723946 220.799438,69.334381 
	C213.803772,73.425919 206.233612,74.039474 198.610214,70.784668 
	C190.317398,67.244041 189.170761,60.200699 195.672241,53.933678 
	C196.736664,52.907650 197.998596,52.086521 199.516968,50.964687 
z"/>
<path fill="#192673" opacity="1.000000" stroke="none" 
	d="
M331.980225,315.197968 
	C338.236328,314.744293 344.430908,314.505890 350.913025,314.601440 
	C345.068237,315.286469 338.935944,315.637512 332.327179,315.922180 
	C331.850708,315.855774 331.918701,315.413239 331.980225,315.197968 
z"/>
<path fill="#202335" opacity="1.000000" stroke="none" 
	d="
M420.020233,114.602539 
	C419.299805,109.689072 418.673920,104.310707 418.107727,98.500000 
	C418.468170,98.006523 418.766327,97.934738 419.288757,97.890961 
	C419.715332,103.332268 419.915039,108.734955 420.020233,114.602539 
z"/>
<path fill="#0C0D16" opacity="1.000000" stroke="none" 
	d="
M321.739380,36.488441 
	C306.384308,37.569031 290.802246,38.156715 275.244141,39.127773 
	C271.553955,39.358097 270.152374,37.717041 269.168549,34.425835 
	C286.601990,34.748089 304.061584,35.441940 321.739380,36.488441 
z"/>
<path fill="#010101" opacity="1.000000" stroke="none" 
	d="
M403.955261,50.606728 
	C403.492188,50.855358 402.930603,50.793015 402.190582,50.410397 
	C402.626984,50.158665 403.241882,50.227211 403.955261,50.606728 
z"/>
<path fill="#020305" opacity="1.000000" stroke="none" 
	d="
M216.034210,50.183769 
	C214.109924,43.433578 217.150253,38.207287 221.965088,33.180389 
	C234.389435,33.288124 246.066544,33.511799 257.743652,33.735474 
	C257.609650,48.051495 243.267303,60.385342 227.256317,59.083038 
	C224.776215,53.791908 220.694168,51.614502 216.034210,50.183769 
z"/>
<path fill="#EEEDEB" opacity="1.000000" stroke="none" 
	d="
M257.736206,33.380058 
	C246.066544,33.511799 234.389435,33.288124 222.231262,32.976997 
	C227.859375,24.762091 237.610321,22.150833 247.765213,24.839184 
	C252.704041,26.146658 257.152527,26.908512 257.736206,33.380058 
z"/>
<path fill="#090A0F" opacity="1.000000" stroke="none" 
	d="
M267.707367,52.961578 
	C268.653656,53.750126 269.882080,54.733173 269.864960,55.694057 
	C269.793030,59.734455 261.801025,66.095886 257.814423,65.433762 
	C257.467285,65.376099 257.270691,64.411972 256.993958,63.526955 
	C260.461395,59.838638 263.939026,56.492264 267.707367,52.961578 
z"/>
<path fill="#E3E3E4" opacity="1.000000" stroke="none" 
	d="
M216.030731,50.538521 
	C220.694168,51.614502 224.776215,53.791908 226.917862,58.915108 
	C221.432281,58.960026 217.720215,56.246529 216.030731,50.538521 
z"/>
<path fill="#090B16" opacity="1.000000" stroke="none" 
	d="
M210.357101,64.523224 
	C210.232376,64.981743 209.950150,65.263603 209.655777,65.276894 
	C207.632477,65.368240 205.606613,65.403389 203.581589,65.456619 
	C203.913788,63.493507 204.245987,61.530399 204.817505,59.284012 
	C206.769211,60.741253 208.481598,62.481777 210.357101,64.523224 
z"/>
<path fill="#0F0F0E" opacity="1.000000" stroke="none" 
	d="
M362.071472,69.037918 
	C360.503662,70.001930 359.300476,71.075035 357.935303,71.353249 
	C356.677856,71.609505 354.739655,71.461647 354.031891,70.665039 
	C353.303192,69.844826 353.188110,67.777046 353.713226,66.696892 
	C354.694611,64.678169 356.058929,62.637592 357.783173,61.252491 
	C359.214996,60.102303 361.392090,59.879879 363.239044,59.246468 
	C363.670898,61.348392 364.409637,63.450596 364.407806,65.552139 
	C364.406830,66.635490 363.088562,67.717674 362.071472,69.037918 
z"/>
<path fill="#0F0E0E" opacity="1.000000" stroke="none" 
	d="
M314.566467,62.588722 
	C312.215149,64.184799 310.129456,65.511261 307.770721,67.011360 
	C306.592651,61.630070 308.979218,56.699356 313.264984,54.998276 
	C314.544250,54.490517 316.257690,55.076527 317.772156,55.161407 
	C317.602692,56.522289 317.686615,57.985474 317.190460,59.214462 
	C316.721039,60.377190 315.642609,61.294086 314.566467,62.588722 
z"/>
<path fill="#0A0A0A" opacity="1.000000" stroke="none" 
	d="
M146.445938,65.823364 
	C144.119278,66.172501 142.143021,66.332443 140.166763,66.492386 
	C140.644302,64.361732 140.792953,62.075687 141.703033,60.149399 
	C142.436432,58.597111 143.900635,57.172775 145.388245,56.255363 
	C146.871017,55.340942 148.786575,55.128292 150.512375,54.607952 
	C150.774750,56.600750 151.735214,58.851868 151.118210,60.519241 
	C150.389755,62.487762 148.297409,63.951569 146.445938,65.823364 
z"/>
<path fill="#070707" opacity="1.000000" stroke="none" 
	d="
M80.020416,72.906418 
	C77.523186,65.870750 86.003899,56.129681 92.851212,57.681923 
	C96.434937,58.494339 97.608917,61.162361 96.718040,64.533279 
	C95.170151,70.390259 86.473526,74.886276 80.020416,72.906418 
z"/>
</svg>