<svg version="1.1" id="Layer_1" xmlns="http://www.w3.org/2000/svg" xmlns:xlink="http://www.w3.org/1999/xlink" x="0px" y="0px"
	 width="100%" viewBox="0 0 1000 1000" enable-background="new 0 0 1000 1000" xml:space="preserve">
<path fill="#000000" opacity="1.000000" stroke="none" 
	d="
M589.000000,1001.000000 
	C392.666656,1001.000000 196.833328,1001.000000 1.000000,1001.000000 
	C1.000000,667.666687 1.000000,334.333344 1.000000,1.000000 
	C334.333344,1.000000 667.666687,1.000000 1001.000000,1.000000 
	C1001.000000,334.333344 1001.000000,667.666687 1001.000000,1001.000000 
	C863.833313,1001.000000 726.666687,1001.000000 589.000000,1001.000000 
M190.223175,325.432343 
	C189.877533,326.779846 189.745712,328.230530 189.152893,329.458710 
	C183.756485,340.638428 178.130981,351.709991 172.882401,362.957794 
	C169.742310,369.687012 166.850418,376.568451 164.416122,383.579102 
	C162.454269,389.229126 161.402130,395.190613 159.845947,400.986969 
	C157.091446,411.246674 153.264328,421.334808 151.681992,431.767120 
	C148.914444,450.013763 144.945755,468.173157 145.685654,486.858917 
	C146.200562,499.862946 146.041153,512.892883 146.277527,525.909485 
	C146.327667,528.671814 146.732681,531.433594 147.072510,534.183472 
	C147.596802,538.425903 148.191360,542.659851 148.782227,546.893799 
	C149.907318,554.955933 150.593719,563.114136 152.307602,571.049927 
	C154.257767,580.079895 157.103104,588.918457 159.614136,597.824768 
	C161.658295,605.075256 163.605988,612.360901 165.941422,619.518372 
	C167.260101,623.559692 169.368805,627.336365 170.958313,631.297729 
	C174.434113,639.960144 177.189011,648.975403 181.373932,657.273804 
	C186.754684,667.943420 193.035980,678.183105 199.329010,688.360840 
	C204.591949,696.872742 210.281235,705.134827 216.080978,713.294739 
	C218.631332,716.883057 221.924606,719.943298 225.060837,723.444519 
	C227.496979,720.587097 231.504639,718.967224 226.711258,715.643677 
	C226.098618,715.218811 225.994507,712.682922 226.586960,712.137512 
	C229.080917,709.841309 227.617020,708.637512 226.171341,706.471985 
	C218.181732,694.504272 209.993088,682.615112 202.916260,670.108582 
	C196.624115,658.988708 191.269394,647.278381 186.280350,635.498474 
	C181.517014,624.251587 177.718552,612.593384 173.582977,601.084717 
	C172.215546,597.279297 170.777878,593.447021 169.963730,589.504944 
	C167.770248,578.884094 165.898392,568.196960 163.893143,557.537170 
	C162.353973,549.354980 160.179459,541.231384 159.429993,532.977966 
	C158.603043,523.871277 159.025879,514.646240 159.003372,505.472565 
	C158.979111,495.593475 158.692062,485.694275 159.209930,475.840118 
	C159.799637,464.618683 160.658691,453.363373 162.321609,442.260773 
	C163.786163,432.482483 166.461716,422.880737 168.713104,413.226837 
	C170.282150,406.498779 171.676910,399.697754 173.793045,393.136902 
	C177.188843,382.608521 180.619370,372.039612 184.951920,361.878662 
	C189.896835,350.281555 195.591263,338.979187 201.448044,327.804535 
	C205.305435,320.444763 209.813065,313.396332 214.411636,306.461853 
	C220.283218,297.607635 225.913239,288.474335 232.777863,280.425507 
	C243.003403,268.436005 253.928909,256.999023 265.114929,245.889145 
	C272.298676,238.754333 280.303619,232.398743 288.274658,226.118011 
	C295.902771,220.107452 303.816040,214.426727 311.877899,209.008652 
	C318.724670,204.407181 325.760712,199.998505 333.076721,196.206146 
	C342.509949,191.316330 352.257843,187.019241 361.958344,182.663162 
	C372.067200,178.123734 382.061676,173.176376 392.514923,169.603317 
	C401.639404,166.484482 411.293915,164.842026 420.783783,162.884445 
	C433.378265,160.286438 445.992889,157.713776 458.691498,155.720383 
	C466.100189,154.557373 473.739716,154.924149 481.187653,153.939194 
	C497.373047,151.798721 513.504883,153.098373 529.628784,154.227097 
	C538.751221,154.865677 547.829590,156.204025 556.907959,157.380112 
	C563.362854,158.216309 569.897095,158.850357 576.193909,160.396912 
	C584.750488,162.498474 593.053650,165.611221 601.572876,167.889084 
	C621.278687,173.158051 640.113708,180.609360 658.170715,190.030975 
	C667.711365,195.008987 677.125671,200.231934 686.540527,205.446320 
	C689.077698,206.851562 691.408142,208.630035 693.527954,210.034683 
	C694.668335,207.285248 695.629028,204.969055 696.833130,202.066040 
	C681.489258,193.475220 666.162659,184.372726 650.356567,176.197296 
	C635.781250,168.658447 620.719543,162.113449 604.855530,157.509125 
	C588.604492,152.792419 572.461670,147.708267 555.516602,146.082382 
	C537.349304,144.339249 519.198669,142.113541 500.986267,141.254135 
	C488.222260,140.651840 475.330719,141.552582 462.564484,142.608231 
	C453.751038,143.337036 445.045258,145.426910 436.307312,146.997101 
	C420.171600,149.896667 404.225800,153.696503 388.826538,159.290756 
	C377.066956,163.562805 365.456940,168.386108 354.166138,173.772690 
	C340.897369,180.102905 327.882782,187.018982 315.080658,194.252090 
	C308.557434,197.937683 302.618439,202.713867 296.638062,207.288284 
	C290.325806,212.116592 284.366425,217.404037 278.099152,222.293823 
	C259.753693,236.607040 243.897018,253.435120 228.728653,270.956055 
	C226.598175,273.416992 225.020477,276.347992 223.066467,278.971710 
	C217.099655,286.983429 210.837799,294.787323 205.143707,302.986664 
	C200.318130,309.935364 196.122452,317.321533 191.254761,324.788239 
	C191.254761,324.788239 190.897263,325.107635 190.223175,325.432343 
M822.004456,372.008820 
	C822.004456,372.008820 821.925781,371.936188 821.865906,372.500519 
	C823.316406,376.278595 824.945984,379.999725 826.171021,383.849579 
	C827.624146,388.416351 828.734497,393.092499 829.983276,397.723907 
	C832.105713,405.594971 834.525574,413.402161 836.244995,421.360535 
	C837.714294,428.161255 838.278870,435.152649 839.424377,442.029602 
	C840.391357,447.835022 842.229614,453.559052 842.593445,459.387085 
	C843.225830,469.518005 843.115540,479.701172 843.135559,489.862762 
	C843.155640,500.026520 843.796692,510.285522 842.666443,520.334106 
	C840.592163,538.775757 837.709900,557.143982 834.565063,575.439758 
	C833.180664,583.494446 830.647461,591.402954 828.059937,599.186340 
	C825.037720,608.277527 821.660706,617.275024 817.942871,626.104858 
	C812.587524,638.824036 807.153320,651.537109 801.035583,663.897766 
	C797.452759,671.136658 792.461975,677.676697 788.130432,684.547424 
	C778.865540,699.243286 768.820618,713.335083 756.689453,725.857300 
	C748.088135,734.735840 740.096924,744.273926 730.943848,752.531677 
	C719.859985,762.531189 708.275452,772.108826 696.098450,780.725647 
	C684.179321,789.159912 671.463562,796.553772 658.681702,803.656067 
	C648.887024,809.098572 638.498474,813.494263 628.265686,818.115723 
	C624.048035,820.020508 619.523254,821.235046 615.180786,822.876526 
	C610.677734,824.578613 606.344360,826.852051 601.727661,828.104370 
	C592.630615,830.571899 583.412537,832.613647 574.199951,834.627991 
	C566.474854,836.317078 558.744080,838.205017 550.912476,839.129822 
	C539.265320,840.505127 527.479553,840.718323 515.839417,842.137207 
	C500.190979,844.044739 484.694427,842.475037 469.185516,841.045044 
	C459.681152,840.168640 450.220154,838.744995 440.774811,837.332336 
	C434.417511,836.381592 428.036285,835.352722 421.820404,833.756653 
	C414.494598,831.875549 407.285889,829.491455 400.115936,827.061401 
	C388.657959,823.177917 377.084534,819.534973 365.918304,814.922668 
	C356.956604,811.220886 348.366119,806.516602 339.900482,801.743591 
	C329.034760,795.617371 318.458954,788.976868 308.123383,782.777039 
	C307.315796,784.654968 304.925079,788.392944 305.568542,789.020630 
	C309.109680,792.475159 305.832733,794.356567 304.831390,795.857910 
	C306.027069,797.518066 306.573547,798.956970 307.613556,799.610107 
	C314.197479,803.745056 320.668945,808.146729 327.594543,811.631531 
	C341.412872,818.584534 355.335358,825.385559 369.536133,831.503601 
	C378.531982,835.379272 388.038696,838.137573 397.442291,840.980103 
	C407.711151,844.084045 417.984100,847.519348 428.509277,849.349426 
	C444.367249,852.106628 460.445740,853.595398 476.763702,855.959473 
	C476.687317,855.986816 476.610931,856.014160 476.534546,856.041504 
	C476.508911,855.892029 476.483307,855.742554 477.339264,855.916565 
	C483.451599,856.282227 489.576599,857.087830 495.673401,856.912781 
	C505.346680,856.635010 515.051208,854.773621 524.650269,855.291687 
	C535.526611,855.878845 545.928040,853.629395 556.502319,852.387939 
	C562.148499,851.725037 567.699402,850.213745 573.276550,849.008057 
	C580.990417,847.340454 588.746643,845.821411 596.375183,843.821228 
	C602.528931,842.207703 608.520630,839.976196 614.583923,838.017822 
	C620.308350,836.169006 626.184570,834.684204 631.719177,832.379395 
	C639.085693,829.311768 646.239746,825.713013 653.387573,822.146851 
	C662.864502,817.418518 672.400879,812.773987 681.619324,807.574951 
	C688.370850,803.767212 694.695557,799.189697 701.130310,794.836853 
	C708.348816,789.953918 715.896423,785.437561 722.545471,779.861084 
	C732.355957,771.633240 741.571960,762.687073 750.902222,753.899353 
	C757.919678,747.289917 765.356750,740.975708 771.463257,733.585083 
	C780.243896,722.958069 788.415100,711.757690 796.042297,700.268250 
	C802.875916,689.974304 808.712402,679.009583 814.811646,668.240417 
	C818.110596,662.415649 821.432861,656.548462 824.045837,650.403198 
	C828.394836,640.175415 832.235596,629.729126 836.187622,619.335815 
	C839.196045,611.424133 842.705505,603.622070 844.806702,595.465881 
	C847.763062,583.990234 849.877197,572.275818 851.888306,560.583862 
	C854.615906,544.726196 857.003418,528.814575 856.529663,512.617920 
	C856.195679,501.200531 856.433105,489.762543 855.927246,478.355377 
	C855.555237,469.964447 854.729004,461.559021 853.503601,453.248749 
	C851.710449,441.087830 849.645874,428.951385 847.168457,416.913239 
	C845.850464,410.508759 843.505310,404.305481 841.472534,398.060577 
	C838.242859,388.138428 835.281311,378.102234 831.468323,368.404449 
	C827.929199,359.403137 823.749817,350.611328 819.265625,342.033997 
	C812.940063,329.934540 806.641663,317.753418 799.280029,306.282043 
	C791.866333,294.729523 783.166565,284.002350 774.271545,271.879456 
	C771.966919,274.407440 770.283508,276.253967 768.645020,278.051208 
	C770.673401,280.427979 772.467590,282.183533 773.856934,284.215851 
	C781.457397,295.332916 789.333801,306.287292 796.377258,317.751038 
	C802.241760,327.295959 807.446777,337.295441 812.271118,347.414337 
	C816.071411,355.385254 818.846802,363.844757 822.004456,372.008820 
M187.653549,832.148682 
	C170.833313,850.828979 154.013092,869.509277 137.025528,888.375427 
	C142.087921,892.944702 146.968658,897.350037 152.112869,901.993164 
	C388.873474,639.402222 625.384888,377.087616 862.024048,114.631348 
	C856.848450,109.967346 851.945984,105.549461 847.115784,101.196686 
	C846.448059,101.694962 846.144714,101.853104 845.930054,102.091164 
	C795.864197,157.634094 745.815552,213.192596 695.741943,268.728607 
	C625.257690,346.901794 554.752380,425.055969 484.261261,503.223022 
	C425.143799,568.777954 366.039490,634.344788 306.918518,699.896667 
	C267.319489,743.803040 227.701462,787.692261 187.653549,832.148682 
M405.500000,371.930634 
	C421.592224,371.930634 437.684448,371.930634 453.688904,371.930634 
	C453.688904,362.669128 453.688904,353.938568 453.688904,345.313507 
	C417.319977,345.313507 381.266205,345.313507 345.294617,345.313507 
	C345.294617,381.687469 345.294617,417.745178 345.294617,453.646515 
	C354.317719,453.646515 363.040466,453.646515 372.158875,453.646515 
	C372.158875,426.216949 372.158875,399.143280 372.158875,371.930573 
	C383.211914,371.930573 393.855957,371.930573 405.500000,371.930634 
M642.616699,572.999329 
	C640.848328,572.999329 639.079956,572.999329 636.916504,572.999329 
	C636.916504,600.641418 636.916504,627.710022 636.916504,655.169312 
	C609.459045,655.169312 582.403503,655.169312 555.289673,655.169312 
	C555.289673,664.293091 555.289673,673.019043 555.289673,681.740051 
	C591.634705,681.740051 627.688843,681.740051 663.743652,681.740051 
	C663.743652,645.412964 663.743652,609.353943 663.743652,572.999512 
	C656.850952,572.999512 650.220459,572.999512 642.616699,572.999329 
z"/>
<path fill="#FAFAFA" opacity="1.000000" stroke="none" 
	d="
M187.872742,831.868896 
	C227.701462,787.692261 267.319489,743.803040 306.918518,699.896667 
	C366.039490,634.344788 425.143799,568.777954 484.261261,503.223022 
	C554.752380,425.055969 625.257690,346.901794 695.741943,268.728607 
	C745.815552,213.192596 795.864197,157.634094 845.930054,102.091164 
	C846.144714,101.853104 846.448059,101.694962 847.115784,101.196686 
	C851.945984,105.549461 856.848450,109.967346 862.024048,114.631348 
	C625.384888,377.087616 388.873474,639.402222 152.112869,901.993164 
	C146.968658,897.350037 142.087921,892.944702 137.025528,888.375427 
	C154.013092,869.509277 170.833313,850.828979 187.872742,831.868896 
z"/>
<path fill="#F7F7F7" opacity="1.000000" stroke="none" 
	d="
M476.430481,855.623291 
	C460.445740,853.595398 444.367249,852.106628 428.509277,849.349426 
	C417.984100,847.519348 407.711151,844.084045 397.442291,840.980103 
	C388.038696,838.137573 378.531982,835.379272 369.536133,831.503601 
	C355.335358,825.385559 341.412872,818.584534 327.594543,811.631531 
	C320.668945,808.146729 314.197479,803.745056 307.613556,799.610107 
	C306.573547,798.956970 306.027069,797.518066 304.831390,795.857910 
	C305.832733,794.356567 309.109680,792.475159 305.568542,789.020630 
	C304.925079,788.392944 307.315796,784.654968 308.123383,782.777039 
	C318.458954,788.976868 329.034760,795.617371 339.900482,801.743591 
	C348.366119,806.516602 356.956604,811.220886 365.918304,814.922668 
	C377.084534,819.534973 388.657959,823.177917 400.115936,827.061401 
	C407.285889,829.491455 414.494598,831.875549 421.820404,833.756653 
	C428.036285,835.352722 434.417511,836.381592 440.774811,837.332336 
	C450.220154,838.744995 459.681152,840.168640 469.185516,841.045044 
	C484.694427,842.475037 500.190979,844.044739 515.839417,842.137207 
	C527.479553,840.718323 539.265320,840.505127 550.912476,839.129822 
	C558.744080,838.205017 566.474854,836.317078 574.199951,834.627991 
	C583.412537,832.613647 592.630615,830.571899 601.727661,828.104370 
	C606.344360,826.852051 610.677734,824.578613 615.180786,822.876526 
	C619.523254,821.235046 624.048035,820.020508 628.265686,818.115723 
	C638.498474,813.494263 648.887024,809.098572 658.681702,803.656067 
	C671.463562,796.553772 684.179321,789.159912 696.098450,780.725647 
	C708.275452,772.108826 719.859985,762.531189 730.943848,752.531677 
	C740.096924,744.273926 748.088135,734.735840 756.689453,725.857300 
	C768.820618,713.335083 778.865540,699.243286 788.130432,684.547424 
	C792.461975,677.676697 797.452759,671.136658 801.035583,663.897766 
	C807.153320,651.537109 812.587524,638.824036 817.942871,626.104858 
	C821.660706,617.275024 825.037720,608.277527 828.059937,599.186340 
	C830.647461,591.402954 833.180664,583.494446 834.565063,575.439758 
	C837.709900,557.143982 840.592163,538.775757 842.666443,520.334106 
	C843.796692,510.285522 843.155640,500.026520 843.135559,489.862762 
	C843.115540,479.701172 843.225830,469.518005 842.593445,459.387085 
	C842.229614,453.559052 840.391357,447.835022 839.424377,442.029602 
	C838.278870,435.152649 837.714294,428.161255 836.244995,421.360535 
	C834.525574,413.402161 832.105713,405.594971 829.983276,397.723907 
	C828.734497,393.092499 827.624146,388.416351 826.171021,383.849579 
	C824.945984,379.999725 823.316406,376.278595 822.159180,372.228943 
	C822.491211,371.750671 822.529907,371.543915 822.568665,371.337189 
	C822.404907,371.587219 822.241211,371.837219 822.077454,372.087250 
	C818.846802,363.844757 816.071411,355.385254 812.271118,347.414337 
	C807.446777,337.295441 802.241760,327.295959 796.377258,317.751038 
	C789.333801,306.287292 781.457397,295.332916 773.856934,284.215851 
	C772.467590,282.183533 770.673401,280.427979 768.645020,278.051208 
	C770.283508,276.253967 771.966919,274.407440 774.271545,271.879456 
	C783.166565,284.002350 791.866333,294.729523 799.280029,306.282043 
	C806.641663,317.753418 812.940063,329.934540 819.265625,342.033997 
	C823.749817,350.611328 827.929199,359.403137 831.468323,368.404449 
	C835.281311,378.102234 838.242859,388.138428 841.472534,398.060577 
	C843.505310,404.305481 845.850464,410.508759 847.168457,416.913239 
	C849.645874,428.951385 851.710449,441.087830 853.503601,453.248749 
	C854.729004,461.559021 855.555237,469.964447 855.927246,478.355377 
	C856.433105,489.762543 856.195679,501.200531 856.529663,512.617920 
	C857.003418,528.814575 854.615906,544.726196 851.888306,560.583862 
	C849.877197,572.275818 847.763062,583.990234 844.806702,595.465881 
	C842.705505,603.622070 839.196045,611.424133 836.187622,619.335815 
	C832.235596,629.729126 828.394836,640.175415 824.045837,650.403198 
	C821.432861,656.548462 818.110596,662.415649 814.811646,668.240417 
	C808.712402,679.009583 802.875916,689.974304 796.042297,700.268250 
	C788.415100,711.757690 780.243896,722.958069 771.463257,733.585083 
	C765.356750,740.975708 757.919678,747.289917 750.902222,753.899353 
	C741.571960,762.687073 732.355957,771.633240 722.545471,779.861084 
	C715.896423,785.437561 708.348816,789.953918 701.130310,794.836853 
	C694.695557,799.189697 688.370850,803.767212 681.619324,807.574951 
	C672.400879,812.773987 662.864502,817.418518 653.387573,822.146851 
	C646.239746,825.713013 639.085693,829.311768 631.719177,832.379395 
	C626.184570,834.684204 620.308350,836.169006 614.583923,838.017822 
	C608.520630,839.976196 602.528931,842.207703 596.375183,843.821228 
	C588.746643,845.821411 580.990417,847.340454 573.276550,849.008057 
	C567.699402,850.213745 562.148499,851.725037 556.502319,852.387939 
	C545.928040,853.629395 535.526611,855.878845 524.650269,855.291687 
	C515.051208,854.773621 505.346680,856.635010 495.673401,856.912781 
	C489.576599,857.087830 483.451599,856.282227 476.921082,855.782898 
	C476.502869,855.649231 476.430481,855.623352 476.430481,855.623291 
z"/>
<path fill="#F6F6F6" opacity="1.000000" stroke="none" 
	d="
M191.648041,324.514130 
	C196.122452,317.321533 200.318130,309.935364 205.143707,302.986664 
	C210.837799,294.787323 217.099655,286.983429 223.066467,278.971710 
	C225.020477,276.347992 226.598175,273.416992 228.728653,270.956055 
	C243.897018,253.435120 259.753693,236.607040 278.099152,222.293823 
	C284.366425,217.404037 290.325806,212.116592 296.638062,207.288284 
	C302.618439,202.713867 308.557434,197.937683 315.080658,194.252090 
	C327.882782,187.018982 340.897369,180.102905 354.166138,173.772690 
	C365.456940,168.386108 377.066956,163.562805 388.826538,159.290756 
	C404.225800,153.696503 420.171600,149.896667 436.307312,146.997101 
	C445.045258,145.426910 453.751038,143.337036 462.564484,142.608231 
	C475.330719,141.552582 488.222260,140.651840 500.986267,141.254135 
	C519.198669,142.113541 537.349304,144.339249 555.516602,146.082382 
	C572.461670,147.708267 588.604492,152.792419 604.855530,157.509125 
	C620.719543,162.113449 635.781250,168.658447 650.356567,176.197296 
	C666.162659,184.372726 681.489258,193.475220 696.833130,202.066040 
	C695.629028,204.969055 694.668335,207.285248 693.527954,210.034683 
	C691.408142,208.630035 689.077698,206.851562 686.540527,205.446320 
	C677.125671,200.231934 667.711365,195.008987 658.170715,190.030975 
	C640.113708,180.609360 621.278687,173.158051 601.572876,167.889084 
	C593.053650,165.611221 584.750488,162.498474 576.193909,160.396912 
	C569.897095,158.850357 563.362854,158.216309 556.907959,157.380112 
	C547.829590,156.204025 538.751221,154.865677 529.628784,154.227097 
	C513.504883,153.098373 497.373047,151.798721 481.187653,153.939194 
	C473.739716,154.924149 466.100189,154.557373 458.691498,155.720383 
	C445.992889,157.713776 433.378265,160.286438 420.783783,162.884445 
	C411.293915,164.842026 401.639404,166.484482 392.514923,169.603317 
	C382.061676,173.176376 372.067200,178.123734 361.958344,182.663162 
	C352.257843,187.019241 342.509949,191.316330 333.076721,196.206146 
	C325.760712,199.998505 318.724670,204.407181 311.877899,209.008652 
	C303.816040,214.426727 295.902771,220.107452 288.274658,226.118011 
	C280.303619,232.398743 272.298676,238.754333 265.114929,245.889145 
	C253.928909,256.999023 243.003403,268.436005 232.777863,280.425507 
	C225.913239,288.474335 220.283218,297.607635 214.411636,306.461853 
	C209.813065,313.396332 205.305435,320.444763 201.448044,327.804535 
	C195.591263,338.979187 189.896835,350.281555 184.951920,361.878662 
	C180.619370,372.039612 177.188843,382.608521 173.793045,393.136902 
	C171.676910,399.697754 170.282150,406.498779 168.713104,413.226837 
	C166.461716,422.880737 163.786163,432.482483 162.321609,442.260773 
	C160.658691,453.363373 159.799637,464.618683 159.209930,475.840118 
	C158.692062,485.694275 158.979111,495.593475 159.003372,505.472565 
	C159.025879,514.646240 158.603043,523.871277 159.429993,532.977966 
	C160.179459,541.231384 162.353973,549.354980 163.893143,557.537170 
	C165.898392,568.196960 167.770248,578.884094 169.963730,589.504944 
	C170.777878,593.447021 172.215546,597.279297 173.582977,601.084717 
	C177.718552,612.593384 181.517014,624.251587 186.280350,635.498474 
	C191.269394,647.278381 196.624115,658.988708 202.916260,670.108582 
	C209.993088,682.615112 218.181732,694.504272 226.171341,706.471985 
	C227.617020,708.637512 229.080917,709.841309 226.586960,712.137512 
	C225.994507,712.682922 226.098618,715.218811 226.711258,715.643677 
	C231.504639,718.967224 227.496979,720.587097 225.060837,723.444519 
	C221.924606,719.943298 218.631332,716.883057 216.080978,713.294739 
	C210.281235,705.134827 204.591949,696.872742 199.329010,688.360840 
	C193.035980,678.183105 186.754684,667.943420 181.373932,657.273804 
	C177.189011,648.975403 174.434113,639.960144 170.958313,631.297729 
	C169.368805,627.336365 167.260101,623.559692 165.941422,619.518372 
	C163.605988,612.360901 161.658295,605.075256 159.614136,597.824768 
	C157.103104,588.918457 154.257767,580.079895 152.307602,571.049927 
	C150.593719,563.114136 149.907318,554.955933 148.782227,546.893799 
	C148.191360,542.659851 147.596802,538.425903 147.072510,534.183472 
	C146.732681,531.433594 146.327667,528.671814 146.277527,525.909485 
	C146.041153,512.892883 146.200562,499.862946 145.685654,486.858917 
	C144.945755,468.173157 148.914444,450.013763 151.681992,431.767120 
	C153.264328,421.334808 157.091446,411.246674 159.845947,400.986969 
	C161.402130,395.190613 162.454269,389.229126 164.416122,383.579102 
	C166.850418,376.568451 169.742310,369.687012 172.882401,362.957794 
	C178.130981,351.709991 183.756485,340.638428 189.152893,329.458710 
	C189.745712,328.230530 189.877533,326.779846 190.631561,325.554810 
	C191.272949,325.715576 191.505966,325.753906 191.738983,325.792236 
	C191.708664,325.366180 191.678360,324.940155 191.648041,324.514130 
z"/>
<path fill="#FEFEFE" opacity="1.000000" stroke="none" 
	d="
M405.000000,371.930603 
	C393.855957,371.930573 383.211914,371.930573 372.158875,371.930573 
	C372.158875,399.143280 372.158875,426.216949 372.158875,453.646515 
	C363.040466,453.646515 354.317719,453.646515 345.294617,453.646515 
	C345.294617,417.745178 345.294617,381.687469 345.294617,345.313507 
	C381.266205,345.313507 417.319977,345.313507 453.688904,345.313507 
	C453.688904,353.938568 453.688904,362.669128 453.688904,371.930634 
	C437.684448,371.930634 421.592224,371.930634 405.000000,371.930603 
z"/>
<path fill="#FEFEFE" opacity="1.000000" stroke="none" 
	d="
M643.103333,572.999390 
	C650.220459,572.999512 656.850952,572.999512 663.743652,572.999512 
	C663.743652,609.353943 663.743652,645.412964 663.743652,681.740051 
	C627.688843,681.740051 591.634705,681.740051 555.289673,681.740051 
	C555.289673,673.019043 555.289673,664.293091 555.289673,655.169312 
	C582.403503,655.169312 609.459045,655.169312 636.916504,655.169312 
	C636.916504,627.710022 636.916504,600.641418 636.916504,572.999329 
	C639.079956,572.999329 640.848328,572.999329 643.103333,572.999390 
z"/>
<path fill="#F7F7F7" opacity="1.000000" stroke="none" 
	d="
M476.480286,855.621155 
	C476.483307,855.742554 476.508911,855.892029 476.534546,856.041504 
	C476.610931,856.014160 476.687317,855.986816 476.597107,855.791382 
	C476.430481,855.623352 476.502869,855.649231 476.480286,855.621155 
z"/>
<path fill="#000000" opacity="1.000000" stroke="none" 
	d="
M822.040955,372.048035 
	C822.241211,371.837219 822.404907,371.587219 822.568665,371.337189 
	C822.529907,371.543915 822.491211,371.750671 822.189087,371.946777 
	C821.925781,371.936188 822.004456,372.008820 822.040955,372.048035 
z"/>
<path fill="#000000" opacity="1.000000" stroke="none" 
	d="
M191.451401,324.651184 
	C191.678360,324.940155 191.708664,325.366180 191.738983,325.792236 
	C191.505966,325.753906 191.272949,325.715576 190.968597,325.392456 
	C190.897263,325.107635 191.254761,324.788239 191.451401,324.651184 
z"/>
</svg>