<svg version="1.1" id="Layer_1" xmlns="http://www.w3.org/2000/svg" xmlns:xlink="http://www.w3.org/1999/xlink" x="0px" y="0px"
	 width="100%" viewBox="0 0 465 385" enable-background="new 0 0 465 385" xml:space="preserve">
<path fill="#010101" opacity="1.000000" stroke="none" 
	d="
M271.000000,386.000000 
	C180.666672,386.000000 90.833351,386.000000 1.000024,386.000000 
	C1.000016,257.666687 1.000016,129.333389 1.000008,1.000059 
	C155.999954,1.000039 310.999908,1.000039 465.999908,1.000020 
	C465.999939,129.333267 465.999939,257.666534 465.999969,385.999908 
	C401.166656,386.000000 336.333344,386.000000 271.000000,386.000000 
M308.203888,325.567902 
	C310.504456,325.883484 312.799072,326.408600 315.106750,326.474243 
	C321.336731,326.651276 323.366913,324.417328 322.011688,318.239990 
	C321.206116,314.568085 319.561646,311.056519 318.080383,307.563599 
	C316.755035,304.438202 315.136475,301.437195 313.396118,297.865875 
	C315.531189,297.705719 316.817352,297.598328 318.105072,297.514496 
	C324.366241,297.106995 325.477692,295.621338 322.729004,290.200714 
	C320.180695,285.175262 316.999969,280.473633 314.200500,275.570740 
	C313.120453,273.679138 312.323547,271.625824 310.887146,268.554688 
	C315.489716,269.981842 318.731415,271.145477 322.055634,271.980469 
	C327.022430,273.228058 329.165497,271.448090 327.478027,266.618774 
	C323.766815,255.997910 319.450470,245.582809 315.150757,235.178909 
	C314.455566,233.496765 312.575775,232.304169 311.243561,230.885269 
	C310.555206,231.235901 309.866821,231.586533 309.178467,231.937149 
	C311.317200,239.519867 313.455933,247.102585 315.735443,255.184494 
	C305.615234,251.284149 295.658051,250.985947 285.740021,252.560928 
	C254.746048,257.482727 228.164337,271.390076 205.400452,292.828094 
	C201.111801,296.866974 196.801605,300.882996 192.002838,305.376312 
	C191.703064,302.062408 191.460175,299.602386 191.261963,297.138794 
	C190.861588,292.162323 190.709381,287.149231 189.946121,282.230133 
	C189.748749,280.958008 187.666534,279.978333 186.450104,278.864319 
	C185.534561,280.036896 184.098236,281.096466 183.814041,282.406036 
	C183.255951,284.977753 183.223526,287.686676 183.180939,290.342194 
	C183.097565,295.539886 183.156464,300.739838 183.156464,306.859406 
	C171.536545,294.254486 164.148956,289.819519 148.726074,285.817230 
	C124.903778,279.635284 100.926086,280.451630 76.951988,284.577942 
	C68.646851,286.007324 60.481846,288.250977 51.187420,290.365021 
	C51.696857,287.063751 51.933681,284.356476 52.546612,281.737213 
	C59.283421,252.948212 66.194763,224.199219 72.730850,195.365051 
	C73.689835,191.134415 75.660004,189.611298 79.563965,189.041458 
	C112.748398,184.197769 143.296127,191.182419 171.541519,209.077621 
	C175.563904,211.626053 177.594452,214.835800 178.115097,219.499039 
	C179.629333,233.061783 181.284302,246.610291 183.069366,260.139954 
	C183.392242,262.587128 184.593582,264.918427 185.389359,267.303223 
	C186.011948,267.185364 186.634537,267.067505 187.257126,266.949646 
	C187.601929,265.076172 188.273819,263.196350 188.237717,261.330200 
	C188.025192,250.346649 188.428299,239.270782 187.100006,228.412445 
	C185.843094,218.137772 187.511978,210.308670 197.509109,205.578644 
	C199.567474,204.604767 201.236832,202.815750 203.101059,201.423325 
	C223.647766,186.076584 246.663742,177.555588 272.323517,176.119888 
	C275.388306,175.948410 277.171844,176.694244 278.719269,179.353775 
	C285.569794,191.127747 292.572632,202.813553 299.583221,214.493546 
	C300.853455,216.609802 302.417816,218.549545 303.846375,220.570786 
	C304.395905,220.309052 304.945435,220.047302 305.494965,219.785553 
	C305.032318,217.832047 304.881042,215.735123 304.057709,213.947769 
	C297.599976,199.929001 291.005066,185.973495 284.472443,171.989136 
	C282.791199,168.390015 280.099335,166.385925 276.094025,165.796188 
	C255.453445,162.757202 236.125366,167.223572 217.475784,175.786392 
	C203.769180,182.079651 192.514252,191.574585 182.414551,202.580322 
	C180.283676,204.902344 178.506470,205.936920 175.283569,203.530258 
	C149.352539,184.166656 119.790466,176.322052 87.798111,177.120682 
	C72.740753,177.496582 68.428566,181.359085 64.608528,195.650055 
	C64.522697,195.971146 64.372093,196.274979 64.286774,196.596161 
	C56.695572,225.173355 49.060612,253.739120 41.572056,282.343201 
	C40.482342,286.505615 39.947769,290.833466 39.419018,295.117218 
	C38.819492,299.974365 41.375385,304.586700 44.419693,303.761841 
	C50.355366,302.153595 50.185349,306.008850 50.681473,309.632172 
	C51.200089,313.419800 51.330605,317.320068 52.378857,320.955353 
	C53.111244,323.495239 55.102165,325.672211 56.917713,328.644440 
	C56.800770,328.850861 56.101189,329.974396 55.507786,331.151428 
	C51.710884,338.682617 56.044216,347.361115 64.215088,348.949402 
	C65.454376,349.190277 66.901718,350.264526 67.542656,351.366425 
	C71.290695,357.809845 71.679817,357.977386 77.895851,353.681396 
	C88.310852,346.483490 99.622070,340.914734 112.243896,339.884338 
	C134.492752,338.068024 156.760712,338.253937 178.652298,343.772491 
	C179.688538,344.033722 180.902054,343.794830 181.995331,343.588806 
	C185.395020,342.948303 188.747833,341.984619 192.170105,341.551422 
	C206.504669,339.736725 220.906540,338.396912 235.193314,336.274414 
	C258.235718,332.851105 281.140198,331.408508 303.877441,338.121918 
	C305.137329,338.493958 306.507996,338.772949 307.802032,338.692505 
	C311.201691,338.481079 312.881500,336.799255 311.153656,333.418335 
	C309.886566,330.939026 308.182953,328.682770 307.038300,325.959778 
	C307.158661,325.836243 307.279022,325.712708 308.203888,325.567902 
M248.237045,62.248543 
	C244.623276,57.681767 241.219604,52.927422 237.348053,48.590767 
	C231.033173,41.517242 224.664612,34.382889 215.550293,30.708174 
	C206.045486,26.876020 198.829453,31.306419 198.199890,41.468349 
	C197.818985,47.616570 197.579636,53.798996 197.804337,59.946766 
	C197.894073,62.401867 199.132935,66.695007 200.320374,66.865448 
	C203.455658,67.315498 207.058319,66.459946 210.073074,65.178680 
	C212.460144,64.164185 212.456833,61.911404 210.016281,60.102085 
	C208.910568,59.282379 207.398209,57.897125 207.443298,56.826267 
	C207.675995,51.302120 208.353668,45.796711 208.876099,40.284767 
	C209.615707,40.015984 210.355331,39.747196 211.094955,39.478413 
	C225.093674,55.542290 240.696564,70.216591 252.889023,88.910614 
	C248.998993,88.506256 246.132721,88.208313 242.143417,87.793640 
	C243.949921,91.014107 245.238190,93.274925 246.493347,95.553978 
	C255.196259,111.356316 253.410614,129.669601 241.873566,143.013382 
	C231.312408,155.228409 215.572906,155.640732 205.495834,143.737411 
	C196.446594,133.048187 196.028030,120.918915 201.199142,108.589882 
	C206.417389,96.148521 215.223907,87.697052 229.483292,86.531586 
	C232.108337,86.317024 234.723450,85.980843 237.343140,85.700798 
	C237.401077,85.173096 237.459015,84.645393 237.516953,84.117699 
	C235.182510,83.052216 232.930939,81.713860 230.497391,80.974586 
	C224.262680,79.080597 218.257584,80.600098 212.517349,83.031944 
	C200.719757,88.029999 191.938156,96.421677 186.259079,107.847000 
	C184.636749,111.110878 182.749207,112.755020 179.110657,112.508659 
	C177.127411,112.374367 175.119019,112.668129 173.122025,112.667168 
	C170.090866,112.665710 167.687912,112.164368 165.691589,109.062103 
	C163.653992,105.895683 160.373901,103.223152 155.136734,104.853905 
	C155.924469,106.679924 156.268936,108.142471 157.082993,109.264236 
	C166.841934,122.711823 162.584885,140.132782 151.386337,151.528839 
	C140.444107,162.664093 126.048607,164.285355 114.909042,155.841110 
	C105.326233,148.576935 101.627510,136.528763 104.987617,123.532776 
	C109.488060,106.126251 126.473267,90.787506 147.567612,99.536316 
	C149.776031,100.452248 152.276566,100.663849 154.641571,101.202232 
	C155.057892,100.756538 155.474197,100.310844 155.890518,99.865150 
	C153.876587,97.083458 152.305817,93.772705 149.752975,91.634369 
	C144.993500,87.647659 139.014130,87.111702 133.154373,88.453896 
	C113.821877,92.882065 100.565979,104.375389 94.207367,123.290726 
	C92.586601,128.112122 90.225716,130.385040 84.936584,128.432220 
	C84.936584,127.822441 84.804688,127.152405 84.955765,126.553787 
	C89.427994,108.833801 93.526543,91.005104 98.584839,73.453163 
	C101.328247,63.933723 105.570953,54.826546 109.476250,45.678074 
	C110.281853,43.790894 112.590645,42.545391 114.206604,41.004131 
	C115.155846,42.961189 116.697800,44.847496 116.941483,46.888783 
	C117.630180,52.657784 117.869667,58.486805 118.116585,64.299377 
	C118.234383,67.072502 118.317055,69.714302 114.963921,71.427757 
	C113.910515,71.966049 113.400810,76.182968 114.339256,77.341370 
	C115.507034,78.782875 118.495697,79.420738 120.577759,79.211136 
	C121.938599,79.074150 123.577766,77.028976 124.249634,75.474365 
	C128.829285,64.877586 129.326859,54.053566 123.953484,43.691208 
	C119.738602,35.562969 110.302505,33.788578 103.841438,40.317604 
	C99.303635,44.903133 95.301003,50.749699 93.106865,56.778336 
	C87.718765,71.582718 83.271042,86.748367 78.938591,101.909729 
	C76.848236,109.224892 75.373962,116.801773 74.516998,124.361740 
	C73.478874,133.519699 77.281929,137.501816 86.100616,136.770615 
	C90.613297,136.396439 91.318146,138.555298 91.998260,142.008224 
	C94.813133,156.299423 104.663849,166.371902 118.069954,168.939468 
	C135.192078,172.218704 154.127258,164.287460 162.561295,149.023514 
	C166.242599,142.361084 167.697281,134.449066 170.005539,127.055336 
	C171.167465,123.333443 172.139832,119.557861 176.528519,118.421539 
	C178.855301,117.819092 180.751236,118.054787 181.048004,121.254524 
	C182.865570,140.851135 195.482101,151.249420 212.716812,156.852905 
	C229.687469,162.370529 241.567551,157.693558 251.266098,142.851990 
	C256.723999,134.499817 261.372192,125.776833 262.092224,115.523354 
	C264.932556,115.247620 267.252838,115.097870 269.551056,114.785706 
	C277.896667,113.652168 279.211670,111.769920 274.919708,104.588913 
	C266.485718,90.477692 257.462585,76.718582 248.237045,62.248543 
M428.649292,224.803238 
	C428.246368,222.797409 428.329529,220.494659 427.327698,218.854691 
	C425.788269,216.334702 423.533539,214.242874 421.527954,212.018402 
	C418.295258,208.433044 414.783173,205.070831 411.824951,201.274750 
	C408.751617,197.330917 409.099915,192.003677 412.042023,189.419846 
	C415.067230,186.763000 420.104492,187.166641 423.869232,190.495483 
	C425.233429,191.701721 426.304413,193.234924 427.636383,194.483231 
	C430.782501,197.431717 433.696625,200.771286 437.262238,203.098068 
	C444.193726,207.621307 450.013275,204.696838 451.254791,196.461227 
	C452.273010,189.706757 450.248413,183.510574 446.897247,177.861862 
	C436.195740,159.823563 426.007385,149.935501 405.620758,156.868988 
	C404.419952,157.277390 402.261200,156.579910 401.275055,155.636948 
	C393.694244,148.388046 386.437317,140.797562 378.790619,133.621353 
	C372.757538,127.959534 370.676270,122.318962 373.994202,113.890762 
	C378.018951,103.667122 372.729584,90.908630 363.187592,83.370361 
	C354.136536,76.219925 343.957886,75.688309 333.340454,81.497253 
	C329.525696,83.584358 329.179993,85.986687 331.813995,89.034851 
	C335.513824,93.316383 339.351013,97.479538 343.145172,101.679138 
	C346.081909,104.929695 343.904938,116.052788 339.831055,117.194565 
	C335.016693,118.543892 330.156830,119.479568 326.312927,114.409142 
	C324.232574,111.665031 321.339264,109.510391 318.695068,107.225983 
	C312.296661,101.698166 308.401642,102.688049 306.066681,110.682381 
	C302.171112,124.019745 305.406189,135.786560 315.045685,145.568024 
	C324.471954,155.133102 335.712616,158.393600 348.855103,154.115280 
	C350.460327,153.592712 353.302734,153.926285 354.322571,155.023819 
	C361.345642,162.582031 368.112427,170.385208 374.747986,178.288910 
	C375.686829,179.407181 376.113617,181.696701 375.681885,183.109253 
	C371.514465,196.743759 375.143372,208.769730 383.244812,219.718643 
	C394.492981,234.920227 417.922028,232.382324 428.649292,224.803238 
z"/>
<path fill="#F4F2EB" opacity="1.000000" stroke="none" 
	d="
M306.673920,326.327118 
	C308.182953,328.682770 309.886566,330.939026 311.153656,333.418335 
	C312.881500,336.799255 311.201691,338.481079 307.802032,338.692505 
	C306.507996,338.772949 305.137329,338.493958 303.877441,338.121918 
	C281.140198,331.408508 258.235718,332.851105 235.193314,336.274414 
	C220.906540,338.396912 206.504669,339.736725 192.170105,341.551422 
	C188.747833,341.984619 185.395020,342.948303 181.995331,343.588806 
	C180.902054,343.794830 179.688538,344.033722 178.652298,343.772491 
	C156.760712,338.253937 134.492752,338.068024 112.243896,339.884338 
	C99.622070,340.914734 88.310852,346.483490 77.895851,353.681396 
	C71.679817,357.977386 71.290695,357.809845 67.542656,351.366425 
	C66.901718,350.264526 65.454376,349.190277 64.215088,348.949402 
	C56.044216,347.361115 51.710884,338.682617 55.507786,331.151428 
	C56.101189,329.974396 56.800770,328.850861 56.917713,328.644440 
	C55.102165,325.672211 53.111244,323.495239 52.378857,320.955353 
	C51.330605,317.320068 51.200089,313.419800 50.681473,309.632172 
	C50.185349,306.008850 50.355366,302.153595 44.419693,303.761841 
	C41.375385,304.586700 38.819492,299.974365 39.419018,295.117218 
	C39.947769,290.833466 40.482342,286.505615 41.572056,282.343201 
	C49.060612,253.739120 56.695572,225.173355 64.286774,196.596161 
	C64.372093,196.274979 64.522697,195.971146 64.608528,195.650055 
	C68.428566,181.359085 72.740753,177.496582 87.798111,177.120682 
	C119.790466,176.322052 149.352539,184.166656 175.283569,203.530258 
	C178.506470,205.936920 180.283676,204.902344 182.414551,202.580322 
	C192.514252,191.574585 203.769180,182.079651 217.475784,175.786392 
	C236.125366,167.223572 255.453445,162.757202 276.094025,165.796188 
	C280.099335,166.385925 282.791199,168.390015 284.472443,171.989136 
	C291.005066,185.973495 297.599976,199.929001 304.057709,213.947769 
	C304.881042,215.735123 305.032318,217.832047 305.494965,219.785553 
	C304.945435,220.047302 304.395905,220.309052 303.846375,220.570786 
	C302.417816,218.549545 300.853455,216.609802 299.583221,214.493546 
	C292.572632,202.813553 285.569794,191.127747 278.719269,179.353775 
	C277.171844,176.694244 275.388306,175.948410 272.323517,176.119888 
	C246.663742,177.555588 223.647766,186.076584 203.101059,201.423325 
	C201.236832,202.815750 199.567474,204.604767 197.509109,205.578644 
	C187.511978,210.308670 185.843094,218.137772 187.100006,228.412445 
	C188.428299,239.270782 188.025192,250.346649 188.237717,261.330200 
	C188.273819,263.196350 187.601929,265.076172 187.257126,266.949646 
	C186.634537,267.067505 186.011948,267.185364 185.389359,267.303223 
	C184.593582,264.918427 183.392242,262.587128 183.069366,260.139954 
	C181.284302,246.610291 179.629333,233.061783 178.115097,219.499039 
	C177.594452,214.835800 175.563904,211.626053 171.541519,209.077621 
	C143.296127,191.182419 112.748398,184.197769 79.563965,189.041458 
	C75.660004,189.611298 73.689835,191.134415 72.730850,195.365051 
	C66.194763,224.199219 59.283421,252.948212 52.546612,281.737213 
	C51.933681,284.356476 51.696857,287.063751 51.187420,290.365021 
	C60.481846,288.250977 68.646851,286.007324 76.951988,284.577942 
	C100.926086,280.451630 124.903778,279.635284 148.726074,285.817230 
	C164.148956,289.819519 171.536545,294.254486 183.156464,306.859406 
	C183.156464,300.739838 183.097565,295.539886 183.180939,290.342194 
	C183.223526,287.686676 183.255951,284.977753 183.814041,282.406036 
	C184.098236,281.096466 185.534561,280.036896 186.450104,278.864319 
	C187.666534,279.978333 189.748749,280.958008 189.946121,282.230133 
	C190.709381,287.149231 190.861588,292.162323 191.261963,297.138794 
	C191.460175,299.602386 191.703064,302.062408 192.002838,305.376312 
	C196.801605,300.882996 201.111801,296.866974 205.400452,292.828094 
	C228.164337,271.390076 254.746048,257.482727 285.740021,252.560928 
	C295.658051,250.985947 305.615234,251.284149 315.735443,255.184494 
	C313.455933,247.102585 311.317200,239.519867 309.178467,231.937149 
	C309.866821,231.586533 310.555206,231.235901 311.243561,230.885269 
	C312.575775,232.304169 314.455566,233.496765 315.150757,235.178909 
	C319.450470,245.582809 323.766815,255.997910 327.478027,266.618774 
	C329.165497,271.448090 327.022430,273.228058 322.055634,271.980469 
	C318.731415,271.145477 315.489716,269.981842 310.887146,268.554688 
	C312.323547,271.625824 313.120453,273.679138 314.200500,275.570740 
	C316.999969,280.473633 320.180695,285.175262 322.729004,290.200714 
	C325.477692,295.621338 324.366241,297.106995 318.105072,297.514496 
	C316.817352,297.598328 315.531189,297.705719 313.396118,297.865875 
	C315.136475,301.437195 316.755035,304.438202 318.080383,307.563599 
	C319.561646,311.056519 321.206116,314.568085 322.011688,318.239990 
	C323.366913,324.417328 321.336731,326.651276 315.106750,326.474243 
	C312.799072,326.408600 310.504456,325.883484 307.592896,325.386353 
	C306.704285,325.252930 306.426636,325.301056 306.149017,325.349182 
	C306.324005,325.675171 306.498962,326.001129 306.673920,326.327118 
M61.359810,314.055206 
	C67.786827,311.357697 74.091690,308.308167 80.663528,306.028076 
	C101.212975,298.898499 121.963959,300.865387 142.605347,305.583313 
	C155.671814,308.569855 168.606979,312.130798 181.755386,315.473328 
	C181.476257,314.923309 181.367661,314.362854 181.028061,314.090179 
	C169.044861,304.468628 156.520020,295.692932 141.312408,291.991638 
	C122.975220,287.528656 104.678291,289.474854 86.530006,293.408173 
	C76.224640,295.641663 66.015388,298.318604 55.550179,300.847229 
	C56.167091,306.088135 56.698448,310.602173 57.268471,315.444733 
	C58.750664,314.959076 59.679363,314.654785 61.359810,314.055206 
M225.086029,290.586060 
	C218.736176,296.209229 212.386322,301.832397 206.036469,307.455536 
	C207.958893,307.896210 209.330261,307.510986 210.606125,306.919739 
	C225.984039,299.793030 241.214554,292.329285 256.752930,285.573120 
	C272.199066,278.857056 288.283051,277.979736 304.611084,282.328613 
	C306.061523,282.714935 307.593933,282.793304 310.217407,283.181976 
	C304.594696,274.044647 300.368866,265.894653 288.814148,265.247864 
	C278.286621,264.658600 268.246246,265.614838 258.500000,269.514069 
	C246.304504,274.393219 235.717697,281.869659 225.086029,290.586060 
M309.391541,309.010437 
	C309.987366,308.629364 311.118469,308.215942 311.097656,307.872162 
	C310.842072,303.646912 302.250458,294.251648 298.088684,294.085358 
	C288.307037,293.694550 278.474945,293.038116 268.728485,293.606567 
	C247.193192,294.862610 229.977722,306.765656 212.329727,317.550964 
	C214.053192,317.837860 215.659332,317.785461 217.211929,317.469696 
	C226.973480,315.484344 236.826660,313.838379 246.455338,311.333588 
	C267.027222,305.982056 287.616486,303.657196 309.391541,309.010437 
M85.117981,315.624115 
	C82.886696,316.261688 80.677650,316.995483 78.419647,317.517517 
	C73.164444,318.732452 70.531311,322.093201 70.249855,327.355560 
	C70.183800,328.590576 70.119621,330.310089 70.829323,330.957764 
	C71.462799,331.535858 73.273773,331.225739 74.377007,330.809235 
	C77.320915,329.697754 80.131081,328.237640 83.051849,327.058380 
	C100.726562,319.922333 119.273895,321.671692 137.657791,321.742004 
	C146.789413,321.776917 155.921280,321.748047 164.072449,321.748047 
	C139.494415,310.884735 113.046600,309.239594 85.117981,315.624115 
z"/>
<path fill="#F2F0EA" opacity="1.000000" stroke="none" 
	d="
M248.460144,62.531162 
	C257.462585,76.718582 266.485718,90.477692 274.919708,104.588913 
	C279.211670,111.769920 277.896667,113.652168 269.551056,114.785706 
	C267.252838,115.097870 264.932556,115.247620 262.092224,115.523354 
	C261.372192,125.776833 256.723999,134.499817 251.266098,142.851990 
	C241.567551,157.693558 229.687469,162.370529 212.716812,156.852905 
	C195.482101,151.249420 182.865570,140.851135 181.048004,121.254524 
	C180.751236,118.054787 178.855301,117.819092 176.528519,118.421539 
	C172.139832,119.557861 171.167465,123.333443 170.005539,127.055336 
	C167.697281,134.449066 166.242599,142.361084 162.561295,149.023514 
	C154.127258,164.287460 135.192078,172.218704 118.069954,168.939468 
	C104.663849,166.371902 94.813133,156.299423 91.998260,142.008224 
	C91.318146,138.555298 90.613297,136.396439 86.100616,136.770615 
	C77.281929,137.501816 73.478874,133.519699 74.516998,124.361740 
	C75.373962,116.801773 76.848236,109.224892 78.938591,101.909729 
	C83.271042,86.748367 87.718765,71.582718 93.106865,56.778336 
	C95.301003,50.749699 99.303635,44.903133 103.841438,40.317604 
	C110.302505,33.788578 119.738602,35.562969 123.953484,43.691208 
	C129.326859,54.053566 128.829285,64.877586 124.249634,75.474365 
	C123.577766,77.028976 121.938599,79.074150 120.577759,79.211136 
	C118.495697,79.420738 115.507034,78.782875 114.339256,77.341370 
	C113.400810,76.182968 113.910515,71.966049 114.963921,71.427757 
	C118.317055,69.714302 118.234383,67.072502 118.116585,64.299377 
	C117.869667,58.486805 117.630180,52.657784 116.941483,46.888783 
	C116.697800,44.847496 115.155846,42.961189 114.206604,41.004131 
	C112.590645,42.545391 110.281853,43.790894 109.476250,45.678074 
	C105.570953,54.826546 101.328247,63.933723 98.584839,73.453163 
	C93.526543,91.005104 89.427994,108.833801 84.955765,126.553787 
	C84.804688,127.152405 84.936584,127.822441 84.936584,128.432220 
	C90.225716,130.385040 92.586601,128.112122 94.207367,123.290726 
	C100.565979,104.375389 113.821877,92.882065 133.154373,88.453896 
	C139.014130,87.111702 144.993500,87.647659 149.752975,91.634369 
	C152.305817,93.772705 153.876587,97.083458 155.890518,99.865150 
	C155.474197,100.310844 155.057892,100.756538 154.641571,101.202232 
	C152.276566,100.663849 149.776031,100.452248 147.567612,99.536316 
	C126.473267,90.787506 109.488060,106.126251 104.987617,123.532776 
	C101.627510,136.528763 105.326233,148.576935 114.909042,155.841110 
	C126.048607,164.285355 140.444107,162.664093 151.386337,151.528839 
	C162.584885,140.132782 166.841934,122.711823 157.082993,109.264236 
	C156.268936,108.142471 155.924469,106.679924 155.136734,104.853905 
	C160.373901,103.223152 163.653992,105.895683 165.691589,109.062103 
	C167.687912,112.164368 170.090866,112.665710 173.122025,112.667168 
	C175.119019,112.668129 177.127411,112.374367 179.110657,112.508659 
	C182.749207,112.755020 184.636749,111.110878 186.259079,107.847000 
	C191.938156,96.421677 200.719757,88.029999 212.517349,83.031944 
	C218.257584,80.600098 224.262680,79.080597 230.497391,80.974586 
	C232.930939,81.713860 235.182510,83.052216 237.516953,84.117699 
	C237.459015,84.645393 237.401077,85.173096 237.343140,85.700798 
	C234.723450,85.980843 232.108337,86.317024 229.483292,86.531586 
	C215.223907,87.697052 206.417389,96.148521 201.199142,108.589882 
	C196.028030,120.918915 196.446594,133.048187 205.495834,143.737411 
	C215.572906,155.640732 231.312408,155.228409 241.873566,143.013382 
	C253.410614,129.669601 255.196259,111.356316 246.493347,95.553978 
	C245.238190,93.274925 243.949921,91.014107 242.143417,87.793640 
	C246.132721,88.208313 248.998993,88.506256 252.889023,88.910614 
	C240.696564,70.216591 225.093674,55.542290 211.094955,39.478413 
	C210.355331,39.747196 209.615707,40.015984 208.876099,40.284767 
	C208.353668,45.796711 207.675995,51.302120 207.443298,56.826267 
	C207.398209,57.897125 208.910568,59.282379 210.016281,60.102085 
	C212.456833,61.911404 212.460144,64.164185 210.073074,65.178680 
	C207.058319,66.459946 203.455658,67.315498 200.320374,66.865448 
	C199.132935,66.695007 197.894073,62.401867 197.804337,59.946766 
	C197.579636,53.798996 197.818985,47.616570 198.199890,41.468349 
	C198.829453,31.306419 206.045486,26.876020 215.550293,30.708174 
	C224.664612,34.382889 231.033173,41.517242 237.348053,48.590767 
	C241.219604,52.927422 244.623276,57.681767 248.460144,62.531162 
z"/>
<path fill="#0022F7" opacity="1.000000" stroke="none" 
	d="
M428.387634,225.091980 
	C417.922028,232.382324 394.492981,234.920227 383.244812,219.718643 
	C375.143372,208.769730 371.514465,196.743759 375.681885,183.109253 
	C376.113617,181.696701 375.686829,179.407181 374.747986,178.288910 
	C368.112427,170.385208 361.345642,162.582031 354.322571,155.023819 
	C353.302734,153.926285 350.460327,153.592712 348.855103,154.115280 
	C335.712616,158.393600 324.471954,155.133102 315.045685,145.568024 
	C305.406189,135.786560 302.171112,124.019745 306.066681,110.682381 
	C308.401642,102.688049 312.296661,101.698166 318.695068,107.225983 
	C321.339264,109.510391 324.232574,111.665031 326.312927,114.409142 
	C330.156830,119.479568 335.016693,118.543892 339.831055,117.194565 
	C343.904938,116.052788 346.081909,104.929695 343.145172,101.679138 
	C339.351013,97.479538 335.513824,93.316383 331.813995,89.034851 
	C329.179993,85.986687 329.525696,83.584358 333.340454,81.497253 
	C343.957886,75.688309 354.136536,76.219925 363.187592,83.370361 
	C372.729584,90.908630 378.018951,103.667122 373.994202,113.890762 
	C370.676270,122.318962 372.757538,127.959534 378.790619,133.621353 
	C386.437317,140.797562 393.694244,148.388046 401.275055,155.636948 
	C402.261200,156.579910 404.419952,157.277390 405.620758,156.868988 
	C426.007385,149.935501 436.195740,159.823563 446.897247,177.861862 
	C450.248413,183.510574 452.273010,189.706757 451.254791,196.461227 
	C450.013275,204.696838 444.193726,207.621307 437.262238,203.098068 
	C433.696625,200.771286 430.782501,197.431717 427.636383,194.483231 
	C426.304413,193.234924 425.233429,191.701721 423.869232,190.495483 
	C420.104492,187.166641 415.067230,186.763000 412.042023,189.419846 
	C409.099915,192.003677 408.751617,197.330917 411.824951,201.274750 
	C414.783173,205.070831 418.295258,208.433044 421.527954,212.018402 
	C423.533539,214.242874 425.788269,216.334702 427.327698,218.854691 
	C428.329529,220.494659 428.246368,222.797409 428.387634,225.091980 
M407.079559,182.426956 
	C411.214661,181.894379 415.960449,179.829224 419.345764,181.178238 
	C424.811707,183.356339 429.450134,187.690475 434.298462,191.301498 
	C436.343933,192.824951 438.034485,194.824921 440.464905,197.165421 
	C442.866943,182.998032 439.327271,173.878723 429.482666,166.915390 
	C424.980408,163.730850 420.012604,162.067307 415.108368,165.446411 
	C410.572510,168.571686 406.789917,168.080078 403.106232,164.561234 
	C391.687408,153.653488 380.403687,142.603500 368.923950,131.760742 
	C364.329071,127.420769 363.907745,123.385513 366.418274,117.305046 
	C374.586273,97.522102 360.011292,86.859184 346.383453,84.241890 
	C343.878510,83.760803 341.069458,84.863281 336.743896,85.465492 
	C340.909119,90.717308 344.146729,94.611427 347.155823,98.674759 
	C348.609070,100.637154 350.201202,102.783432 350.743530,105.079544 
	C352.330688,111.799355 349.042206,120.913597 344.147217,122.572533 
	C333.958496,126.025490 326.017059,126.745995 320.688873,119.785332 
	C318.207550,116.543755 315.456329,113.508797 312.827454,110.380196 
	C311.771240,114.417816 311.608002,118.149368 311.802155,121.862228 
	C312.364349,132.614243 318.553864,140.636841 328.828003,143.985550 
	C335.601044,146.193161 342.314301,145.489258 348.886230,143.073074 
	C352.346069,141.801041 355.326691,142.058655 357.961578,144.894775 
	C367.366852,155.018372 376.754608,165.159836 386.289337,175.160751 
	C389.962067,179.013077 390.518890,182.753967 388.362061,187.749054 
	C384.369232,196.996216 385.619110,206.048584 391.481720,214.246246 
	C397.013336,221.981125 406.326416,225.027390 415.125092,221.952118 
	C412.386292,218.482239 409.506256,215.308167 407.165070,211.776840 
	C400.537628,201.780426 400.400360,190.607391 407.079559,182.426956 
z"/>
<path fill="#0B0B0A" opacity="1.000000" stroke="none" 
	d="
M60.983936,314.202850 
	C59.679363,314.654785 58.750664,314.959076 57.268471,315.444733 
	C56.698448,310.602173 56.167091,306.088135 55.550179,300.847229 
	C66.015388,298.318604 76.224640,295.641663 86.530006,293.408173 
	C104.678291,289.474854 122.975220,287.528656 141.312408,291.991638 
	C156.520020,295.692932 169.044861,304.468628 181.028061,314.090179 
	C181.367661,314.362854 181.476257,314.923309 181.755386,315.473328 
	C168.606979,312.130798 155.671814,308.569855 142.605347,305.583313 
	C121.963959,300.865387 101.212975,298.898499 80.663528,306.028076 
	C74.091690,308.308167 67.786827,311.357697 60.983936,314.202850 
z"/>
<path fill="#0A0909" opacity="1.000000" stroke="none" 
	d="
M225.351105,290.346741 
	C235.717697,281.869659 246.304504,274.393219 258.500000,269.514069 
	C268.246246,265.614838 278.286621,264.658600 288.814148,265.247864 
	C300.368866,265.894653 304.594696,274.044647 310.217407,283.181976 
	C307.593933,282.793304 306.061523,282.714935 304.611084,282.328613 
	C288.283051,277.979736 272.199066,278.857056 256.752930,285.573120 
	C241.214554,292.329285 225.984039,299.793030 210.606125,306.919739 
	C209.330261,307.510986 207.958893,307.896210 206.036469,307.455536 
	C212.386322,301.832397 218.736176,296.209229 225.351105,290.346741 
z"/>
<path fill="#0A0A0A" opacity="1.000000" stroke="none" 
	d="
M308.968628,309.003265 
	C287.616486,303.657196 267.027222,305.982056 246.455338,311.333588 
	C236.826660,313.838379 226.973480,315.484344 217.211929,317.469696 
	C215.659332,317.785461 214.053192,317.837860 212.329727,317.550964 
	C229.977722,306.765656 247.193192,294.862610 268.728485,293.606567 
	C278.474945,293.038116 288.307037,293.694550 298.088684,294.085358 
	C302.250458,294.251648 310.842072,303.646912 311.097656,307.872162 
	C311.118469,308.215942 309.987366,308.629364 308.968628,309.003265 
z"/>
<path fill="#0F0F0E" opacity="1.000000" stroke="none" 
	d="
M85.513199,315.500458 
	C113.046600,309.239594 139.494415,310.884735 164.072449,321.748047 
	C155.921280,321.748047 146.789413,321.776917 137.657791,321.742004 
	C119.273895,321.671692 100.726562,319.922333 83.051849,327.058380 
	C80.131081,328.237640 77.320915,329.697754 74.377007,330.809235 
	C73.273773,331.225739 71.462799,331.535858 70.829323,330.957764 
	C70.119621,330.310089 70.183800,328.590576 70.249855,327.355560 
	C70.531311,322.093201 73.164444,318.732452 78.419647,317.517517 
	C80.677650,316.995483 82.886696,316.261688 85.513199,315.500458 
z"/>
<path fill="#010101" opacity="1.000000" stroke="none" 
	d="
M306.856110,326.143433 
	C306.498962,326.001129 306.324005,325.675171 306.149017,325.349182 
	C306.426636,325.301056 306.704285,325.252930 307.190643,325.397003 
	C307.279022,325.712708 307.158661,325.836243 306.856110,326.143433 
z"/>
<path fill="#000104" opacity="1.000000" stroke="none" 
	d="
M406.808044,182.695770 
	C400.400360,190.607391 400.537628,201.780426 407.165070,211.776840 
	C409.506256,215.308167 412.386292,218.482239 415.125092,221.952118 
	C406.326416,225.027390 397.013336,221.981125 391.481720,214.246246 
	C385.619110,206.048584 384.369232,196.996216 388.362061,187.749054 
	C390.518890,182.753967 389.962067,179.013077 386.289337,175.160751 
	C376.754608,165.159836 367.366852,155.018372 357.961578,144.894775 
	C355.326691,142.058655 352.346069,141.801041 348.886230,143.073074 
	C342.314301,145.489258 335.601044,146.193161 328.828003,143.985550 
	C318.553864,140.636841 312.364349,132.614243 311.802155,121.862228 
	C311.608002,118.149368 311.771240,114.417816 312.827454,110.380196 
	C315.456329,113.508797 318.207550,116.543755 320.688873,119.785332 
	C326.017059,126.745995 333.958496,126.025490 344.147217,122.572533 
	C349.042206,120.913597 352.330688,111.799355 350.743530,105.079544 
	C350.201202,102.783432 348.609070,100.637154 347.155823,98.674759 
	C344.146729,94.611427 340.909119,90.717308 336.743896,85.465492 
	C341.069458,84.863281 343.878510,83.760803 346.383453,84.241890 
	C360.011292,86.859184 374.586273,97.522102 366.418274,117.305046 
	C363.907745,123.385513 364.329071,127.420769 368.923950,131.760742 
	C380.403687,142.603500 391.687408,153.653488 403.106232,164.561234 
	C406.789917,168.080078 410.572510,168.571686 415.108368,165.446411 
	C420.012604,162.067307 424.980408,163.730850 429.482666,166.915390 
	C439.327271,173.878723 442.866943,182.998032 440.464905,197.165421 
	C438.034485,194.824921 436.343933,192.824951 434.298462,191.301498 
	C429.450134,187.690475 424.811707,183.356339 419.345764,181.178238 
	C415.960449,179.829224 411.214661,181.894379 406.808044,182.695770 
z"/>
</svg>