<svg version="1.1" id="Layer_1" xmlns="http://www.w3.org/2000/svg" xmlns:xlink="http://www.w3.org/1999/xlink" x="0px" y="0px"
	 width="100%" viewBox="0 0 460 412" enable-background="new 0 0 460 412" xml:space="preserve">
<path fill="#010101" opacity="1.000000" stroke="none" 
	d="
M269.000000,413.000000 
	C179.358887,413.000000 90.217766,413.000000 1.038322,413.000000 
	C1.038322,275.731567 1.038322,138.463135 1.038322,1.097345 
	C154.224457,1.097345 307.448975,1.097345 460.836761,1.097345 
	C460.836761,138.333176 460.836761,275.666565 460.836761,413.000000 
	C397.129791,413.000000 333.314880,413.000000 269.000000,413.000000 
M228.769623,233.794449 
	C228.585876,233.634827 228.402130,233.475220 228.783127,232.767532 
	C228.498260,231.701416 228.565338,230.140701 227.872604,229.647766 
	C222.557861,225.865814 213.462830,228.240433 210.082382,234.125107 
	C205.625290,241.883926 207.471191,251.736191 213.922699,254.622406 
	C224.204178,259.222015 236.504547,251.119949 236.334320,239.860214 
	C236.252258,234.432617 234.702576,233.202957 228.769623,233.794449 
M294.500549,315.688538 
	C280.830048,315.688538 267.159515,315.688538 253.489014,315.688538 
	C253.431015,315.191711 253.373016,314.694885 253.315002,314.198029 
	C263.988312,308.553345 274.585999,302.758789 285.363464,297.320496 
	C291.777100,294.084106 294.646118,289.252380 294.349152,282.117859 
	C293.761139,267.988953 293.379974,253.851303 292.933472,239.716644 
	C292.580048,228.528900 288.171204,220.860886 276.802521,216.768295 
	C263.445801,211.959991 251.444199,204.365829 241.446671,193.980865 
	C240.354431,192.846298 238.904526,192.056030 238.152481,191.499634 
	C235.099747,193.624329 232.772446,195.916122 229.975708,197.073456 
	C218.338028,201.889313 207.184723,200.660767 196.939316,193.233398 
	C172.653671,175.627716 165.873291,132.895920 183.517944,108.564911 
	C189.703232,100.035736 198.286438,94.273453 208.694443,96.595345 
	C218.531906,98.789955 227.192917,97.446281 236.669785,95.338768 
	C249.114395,92.571274 262.006439,91.232506 274.770782,90.613358 
	C297.865326,89.493141 321.007599,89.352043 344.130432,88.825256 
	C347.270111,88.753723 350.412781,88.815399 353.554077,88.815399 
	C353.586121,88.084770 353.618134,87.354134 353.650177,86.623505 
	C334.152679,76.565590 312.820038,77.002556 291.664551,77.073807 
	C270.145142,77.146278 248.878708,79.500320 228.542542,87.146973 
	C225.365295,77.476959 227.641373,72.160507 237.591171,70.398094 
	C254.420670,67.417053 271.418701,64.946815 288.451477,63.657940 
	C313.707550,61.746807 338.648376,64.612495 362.959198,72.054138 
	C370.425751,74.339684 371.496399,76.392540 372.055695,84.228310 
	C372.426575,89.424324 373.834991,94.606339 375.353027,99.620842 
	C375.765045,100.981804 378.261292,101.711823 379.800964,102.731430 
	C380.506439,101.141525 382.018433,99.405167 381.761475,97.990005 
	C381.074127,94.204628 382.801361,91.679337 385.472900,89.933388 
	C390.863403,86.410522 396.261505,82.672050 402.150055,80.196709 
	C409.329346,77.178802 416.200165,79.147552 421.986084,84.406235 
	C427.287476,89.224556 429.944275,95.542900 430.948608,102.365189 
	C435.586578,133.870743 426.518433,161.514465 406.660248,185.925903 
	C398.476318,195.986374 387.658447,198.957031 375.294006,196.421021 
	C368.804382,195.089951 362.501495,192.874863 356.060272,191.276749 
	C327.471832,184.183624 299.145355,189.141983 270.824249,193.354797 
	C269.423431,193.563171 268.181458,194.839142 266.865509,195.617996 
	C266.881287,196.274872 266.897034,196.931747 266.912781,197.588638 
	C270.779236,198.399078 274.637238,199.859100 278.513580,199.909637 
	C297.172302,200.152847 315.836670,199.929367 334.497467,200.072769 
	C339.341064,200.109985 344.179077,200.872467 349.019623,201.301819 
	C349.189331,202.008240 349.359009,202.714661 349.528717,203.421066 
	C342.623047,207.193253 335.721100,210.972275 328.809235,214.733139 
	C326.922943,215.759521 324.581482,216.346146 323.228760,217.840500 
	C321.973083,219.227646 320.803528,221.915848 321.350739,223.371582 
	C321.909851,224.859009 324.640778,226.444290 326.353882,226.373093 
	C329.036407,226.261612 332.039581,225.335953 334.246155,223.803635 
	C342.964508,217.749329 351.514862,211.440598 359.929016,204.968185 
	C362.539886,202.959854 364.280365,201.913971 367.640594,204.007477 
	C383.306061,213.767334 399.317352,212.206512 411.990295,198.674194 
	C433.723389,175.467300 442.834106,147.411942 440.661713,115.870491 
	C439.791168,103.230873 435.408600,91.534790 427.021637,81.677780 
	C418.744812,71.950188 406.269135,68.118797 394.605743,72.269379 
	C389.645203,74.034660 385.087616,76.932274 380.858215,79.058281 
	C378.258331,74.821404 376.486389,69.380745 372.745819,66.469391 
	C367.814087,62.630924 361.585602,59.820862 355.481720,58.234653 
	C326.586456,50.725716 297.190674,50.319828 267.686188,53.580528 
	C252.923233,55.212059 238.483917,58.271389 225.027222,64.959663 
	C218.870499,68.019691 215.890762,72.912048 215.917862,79.728264 
	C215.930954,83.021629 215.920120,86.315086 215.920120,89.672989 
	C190.485901,85.116005 174.517563,92.863823 165.435928,115.220406 
	C155.152344,140.535934 157.837646,164.855835 174.117645,187.033661 
	C187.336273,205.041061 207.132645,212.600922 227.171982,206.335785 
	C235.427948,203.754639 240.318466,204.328262 246.728134,210.564743 
	C255.816040,219.407089 267.748138,224.422470 280.005219,228.020676 
	C282.924072,228.877548 284.355194,230.223206 284.354401,233.524750 
	C284.350281,250.998489 284.617432,268.472443 284.568176,285.945709 
	C284.564392,287.289612 283.147766,289.271942 281.875366,289.873291 
	C263.404785,298.602875 244.846283,307.146454 226.309906,315.736847 
	C224.960052,316.362427 223.291962,316.705048 222.357193,317.718903 
	C221.225586,318.946289 219.931519,320.877838 220.159744,322.265961 
	C220.390152,323.667328 222.193359,325.343903 223.675766,325.878174 
	C225.799347,326.643555 228.254990,326.659210 230.572769,326.688904 
	C285.045044,327.386566 339.517792,328.049286 393.990692,328.694611 
	C398.201202,328.744507 400.475952,326.200531 398.931793,322.315735 
	C397.924683,319.782043 395.648865,317.326538 393.302612,315.853363 
	C389.970795,313.761383 386.112427,312.437103 382.372467,311.078186 
	C366.306122,305.240662 350.263184,299.326141 334.075104,293.842957 
	C328.543304,291.969238 325.799164,289.080963 325.967407,283.088684 
	C326.116241,277.787750 325.749451,272.449554 325.270782,267.158508 
	C324.254059,255.920853 323.095581,244.693771 321.761841,233.490143 
	C321.607788,232.196014 319.975525,231.077850 319.028595,229.878098 
	C318.325043,231.176819 316.989258,232.487564 317.013702,233.772446 
	C317.329651,250.382111 317.675873,266.994904 318.366455,283.592255 
	C318.729004,292.305206 323.453613,298.101685 331.797485,300.881531 
	C338.890411,303.244568 345.987488,305.599579 353.034698,308.093933 
	C358.539093,310.042175 363.969757,312.198761 369.433197,314.262756 
	C369.337921,314.738037 369.242615,315.213287 369.147339,315.688568 
	C344.598419,315.688568 320.049500,315.688568 294.500549,315.688538 
M71.001945,250.834763 
	C65.690926,258.881470 60.430500,266.962250 55.045349,274.959045 
	C52.710258,278.426544 52.731014,281.380707 55.259232,284.940796 
	C60.556374,292.399963 65.492287,300.123718 70.348602,307.881531 
	C71.409744,309.576660 71.769096,311.838867 72.015594,313.892242 
	C72.753609,320.039948 68.003342,323.420807 64.772926,327.513977 
	C53.299526,342.051575 42.381397,356.971741 35.637459,374.383270 
	C34.319740,377.785431 33.410759,383.397858 35.214649,385.494385 
	C38.202469,388.966888 42.535709,385.232239 45.850307,383.353119 
	C50.864265,380.510529 55.605568,377.186981 60.862556,373.811096 
	C61.156223,375.724060 61.451931,377.137543 61.579170,378.566040 
	C62.199512,385.530701 62.590500,392.523224 63.486900,399.450989 
	C63.731808,401.343719 65.446983,403.046173 66.487434,404.835968 
	C68.158539,403.730713 70.343788,402.985107 71.411911,401.458069 
	C76.081253,394.782745 80.445175,387.892822 84.885139,381.058228 
	C92.116028,369.927368 99.319740,358.778839 106.643486,347.470123 
	C111.433907,350.657501 115.344200,353.148682 119.137169,355.807312 
	C125.882446,360.535248 132.363663,361.445343 138.767883,355.138641 
	C140.406967,353.524506 142.539383,352.415680 144.424286,351.045990 
	C150.027374,346.974365 150.407349,346.784637 153.913574,352.659576 
	C163.202942,368.224701 172.094742,384.027008 181.370850,399.600250 
	C183.028229,402.382782 185.769196,404.519836 188.009827,406.954895 
	C189.619553,404.015259 191.986938,401.246063 192.693939,398.103363 
	C194.650223,389.407532 195.913788,380.555847 197.521133,371.365936 
	C198.916443,372.266479 200.179031,372.995636 201.349197,373.851257 
	C206.725555,377.782227 211.879166,382.071228 217.542755,385.526947 
	C219.524155,386.735870 223.104660,386.721985 225.251297,385.735443 
	C226.529785,385.147858 226.747696,381.597473 226.859070,379.350159 
	C226.936432,377.789459 226.116806,376.143494 225.534363,374.597198 
	C219.082367,357.468140 209.734421,341.970581 198.258072,327.818176 
	C194.243301,322.867218 189.073242,318.853119 184.377548,314.360260 
	C190.330139,307.294128 195.556885,301.033386 200.844437,294.824463 
	C212.367691,281.293152 212.248474,280.747711 200.374680,267.660522 
	C191.457397,257.831970 181.106613,249.125565 182.098770,233.347382 
	C182.699875,223.788284 182.496475,221.373734 169.421997,222.999146 
	C161.929504,223.930588 156.069183,221.995193 150.528931,216.710266 
	C144.778748,211.225082 138.235306,206.514648 131.740463,201.883804 
	C125.907303,197.724762 123.776016,197.975204 118.632164,202.774796 
	C112.544548,208.455002 106.424423,214.142899 100.821503,220.286316 
	C96.504158,225.020111 91.924538,227.932190 85.282570,227.152145 
	C83.029625,226.887543 80.643532,227.487335 78.350899,227.881714 
	C72.083992,228.959732 69.912804,231.359085 70.042618,237.603882 
	C70.128700,241.745178 70.742584,245.875504 71.001945,250.834763 
M232.131027,169.210175 
	C229.511078,152.815186 226.974335,136.406006 224.186172,120.039665 
	C223.740982,117.426521 222.834839,114.268478 221.007858,112.615967 
	C209.667450,102.358490 192.557312,105.707748 185.484894,119.302391 
	C179.918945,130.001266 180.668198,141.278091 183.187271,152.446091 
	C188.633698,176.592163 206.709747,188.926590 230.067413,185.002121 
	C234.264557,184.296921 235.937286,182.353561 234.660645,178.158051 
	C233.838074,175.454803 233.103653,172.724716 232.131027,169.210175 
M369.085632,170.729874 
	C368.218323,175.833145 370.466003,179.196594 374.701996,181.899185 
	C383.805145,187.707123 391.902985,187.714172 400.205261,180.131485 
	C417.930054,163.942902 425.302948,143.291306 423.270721,119.661003 
	C422.731140,113.387520 419.747406,106.823082 416.283447,101.419495 
	C411.061646,93.273743 398.268158,90.425171 389.703949,98.563019 
	C382.467194,105.439545 376.688385,111.944839 377.094696,123.422585 
	C377.653168,139.197769 373.725647,154.708679 369.085632,170.729874 
M319.595520,102.953957 
	C298.731689,100.972458 278.073395,102.507515 257.679749,107.102478 
	C251.582855,108.476189 245.657013,110.771362 239.843628,113.117310 
	C238.528458,113.648041 238.008774,116.149963 237.122925,117.744537 
	C238.739655,118.335342 240.321228,119.085304 241.987167,119.453323 
	C242.891678,119.653130 243.934357,119.139793 244.923874,119.055260 
	C269.241699,116.977531 293.562012,114.929245 317.878540,112.836174 
	C322.999420,112.395378 328.134399,111.970444 333.201630,111.156616 
	C334.484802,110.950523 335.532318,109.277229 336.688110,108.278114 
	C335.543182,107.224228 334.548828,105.553734 333.225464,105.230659 
	C329.050964,104.211525 324.753143,103.697533 319.595520,102.953957 
M387.683258,26.050827 
	C385.347321,26.844961 382.815796,27.296719 380.712585,28.498240 
	C374.708893,31.928009 372.444275,39.427368 375.156891,45.887665 
	C377.819672,52.229122 385.020416,55.730965 392.099640,54.127232 
	C397.976837,52.795795 402.478973,46.319553 402.111694,39.779297 
	C401.895752,35.933975 399.937012,33.550423 395.799500,31.874269 
	C395.799500,34.479736 396.054291,36.441864 395.728943,38.302547 
	C395.393219,40.222664 394.946014,42.457882 393.720367,43.799519 
	C392.321411,45.330849 389.890015,47.022381 388.127045,46.811069 
	C386.322815,46.594814 384.081818,44.471844 383.263184,42.634842 
	C380.913116,37.361126 384.393646,32.419060 390.821686,31.212069 
	C392.630920,30.872339 394.442657,30.545570 396.253235,30.212858 
	C396.329620,29.589182 396.406036,28.965504 396.482422,28.341825 
	C393.827423,27.577307 391.172394,26.812788 387.683258,26.050827 
M151.211197,43.170719 
	C151.367172,51.758854 151.263321,60.366123 151.893387,68.919334 
	C152.022888,70.677299 154.894791,72.233246 156.502640,73.882309 
	C157.933868,72.273285 160.595322,70.661240 160.591370,69.055733 
	C160.570007,60.358852 160.083069,51.645325 159.266037,42.983807 
	C159.110260,41.332470 156.753555,39.888741 155.412308,38.349224 
	C154.085098,39.700665 152.757904,41.052109 151.211197,43.170719 
M398.565582,280.319153 
	C398.993866,284.852417 398.878082,289.541046 400.107330,293.845581 
	C400.628662,295.671112 404.055481,297.872528 406.009613,297.735352 
	C407.866211,297.604980 410.875763,294.740570 411.004486,292.911316 
	C411.331146,288.269287 410.896881,283.371185 409.621216,278.902771 
	C408.964447,276.602203 406.064423,273.733063 403.816406,273.371887 
	C400.216217,272.793488 399.363098,276.485382 398.565582,280.319153 
M401.458069,225.208862 
	C401.362915,231.260544 401.005402,237.327423 401.354370,243.353378 
	C401.443237,244.887085 403.775452,246.290863 405.076904,247.754364 
	C406.479462,246.426544 408.954559,245.201233 409.093079,243.752548 
	C409.606110,238.385178 409.753998,232.907028 409.262634,227.541611 
	C408.804077,222.534576 406.428406,221.789124 401.458069,225.208862 
M126.954292,87.863251 
	C134.199539,87.250755 141.451096,86.699013 148.682037,85.948593 
	C149.582001,85.855202 150.372620,84.708481 151.213913,84.049828 
	C150.468109,83.291740 149.852142,82.122169 148.956329,81.839470 
	C140.356033,79.125404 131.677826,79.295815 123.083069,81.806328 
	C121.950012,82.137283 121.201897,83.786125 120.275505,84.824600 
	C121.237701,85.619003 122.114044,86.570984 123.189735,87.157082 
	C124.024246,87.611778 125.107742,87.609512 126.954292,87.863251 
M158.497604,83.943329 
	C159.999237,84.992317 161.623260,87.079742 162.982376,86.919556 
	C171.011490,85.973244 178.994843,84.590530 186.951889,83.127823 
	C188.289627,82.881912 189.424026,81.529869 190.652374,80.688911 
	C190.479401,80.214401 190.306427,79.739883 190.133438,79.265366 
	C179.247314,75.912773 168.991699,78.604050 158.497604,83.943329 
M153.062134,118.904770 
	C156.457382,119.701935 159.947403,118.889832 159.657822,115.176643 
	C159.204895,109.368469 157.761566,103.526863 155.892838,97.984306 
	C154.889374,95.008118 152.442154,95.556458 150.810028,98.337837 
	C147.594620,103.817368 148.297714,113.501900 153.062134,118.904770 
M409.268494,262.188385 
	C417.343018,268.568085 434.157349,268.698547 439.123352,261.921844 
	C437.593536,261.241913 436.220306,260.171509 434.778931,260.070160 
	C428.343842,259.617737 421.887939,259.238434 415.442627,259.282471 
	C413.338013,259.296844 411.242737,260.673889 409.268494,262.188385 
M382.010437,258.058533 
	C380.880829,258.302002 379.634521,258.327820 378.655701,258.852539 
	C377.747864,259.339233 376.554565,260.343567 376.532959,261.148041 
	C376.509766,262.011932 377.520416,263.229828 378.400482,263.736938 
	C382.909821,266.335236 396.434296,264.710999 400.836884,260.850159 
	C395.002319,257.755890 388.941010,257.927673 382.010437,258.058533 
z"/>
<path fill="#F3F1EA" opacity="1.000000" stroke="none" 
	d="
M295.000549,315.688538 
	C320.049500,315.688568 344.598419,315.688568 369.147339,315.688568 
	C369.242615,315.213287 369.337921,314.738037 369.433197,314.262756 
	C363.969757,312.198761 358.539093,310.042175 353.034698,308.093933 
	C345.987488,305.599579 338.890411,303.244568 331.797485,300.881531 
	C323.453613,298.101685 318.729004,292.305206 318.366455,283.592255 
	C317.675873,266.994904 317.329651,250.382111 317.013702,233.772446 
	C316.989258,232.487564 318.325043,231.176819 319.028625,229.878113 
	C319.975525,231.077850 321.607788,232.196014 321.761841,233.490143 
	C323.095581,244.693771 324.254059,255.920853 325.270782,267.158508 
	C325.749451,272.449554 326.116241,277.787750 325.967407,283.088684 
	C325.799164,289.080963 328.543304,291.969238 334.075104,293.842957 
	C350.263184,299.326141 366.306122,305.240662 382.372467,311.078186 
	C386.112427,312.437103 389.970795,313.761383 393.302612,315.853363 
	C395.648865,317.326538 397.924683,319.782043 398.931793,322.315735 
	C400.475952,326.200531 398.201202,328.744507 393.990692,328.694611 
	C339.517792,328.049286 285.045044,327.386566 230.572769,326.688904 
	C228.254990,326.659210 225.799347,326.643555 223.675766,325.878174 
	C222.193359,325.343903 220.390152,323.667328 220.159744,322.265961 
	C219.931519,320.877838 221.225586,318.946289 222.357193,317.718903 
	C223.291962,316.705048 224.960052,316.362427 226.309906,315.736847 
	C244.846283,307.146454 263.404785,298.602875 281.875366,289.873291 
	C283.147766,289.271942 284.564392,287.289612 284.568176,285.945709 
	C284.617432,268.472443 284.350281,250.998489 284.354401,233.524750 
	C284.355194,230.223206 282.924072,228.877548 280.005219,228.020676 
	C267.748138,224.422470 255.816040,219.407089 246.728134,210.564743 
	C240.318466,204.328262 235.427948,203.754639 227.171982,206.335785 
	C207.132645,212.600922 187.336273,205.041061 174.117645,187.033661 
	C157.837646,164.855835 155.152344,140.535934 165.435928,115.220406 
	C174.517563,92.863823 190.485901,85.116005 215.920120,89.672989 
	C215.920120,86.315086 215.930954,83.021629 215.917862,79.728264 
	C215.890762,72.912048 218.870499,68.019691 225.027222,64.959663 
	C238.483917,58.271389 252.923233,55.212059 267.686188,53.580528 
	C297.190674,50.319828 326.586456,50.725716 355.481720,58.234653 
	C361.585602,59.820862 367.814087,62.630924 372.745819,66.469391 
	C376.486389,69.380745 378.258331,74.821404 380.858215,79.058281 
	C385.087616,76.932274 389.645203,74.034660 394.605743,72.269379 
	C406.269135,68.118797 418.744812,71.950188 427.021637,81.677780 
	C435.408600,91.534790 439.791168,103.230873 440.661713,115.870491 
	C442.834106,147.411942 433.723389,175.467300 411.990295,198.674194 
	C399.317352,212.206512 383.306061,213.767334 367.640594,204.007477 
	C364.280365,201.913971 362.539886,202.959854 359.929016,204.968185 
	C351.514862,211.440598 342.964508,217.749329 334.246155,223.803635 
	C332.039581,225.335953 329.036407,226.261612 326.353882,226.373093 
	C324.640778,226.444290 321.909851,224.859009 321.350739,223.371582 
	C320.803528,221.915848 321.973083,219.227646 323.228760,217.840500 
	C324.581482,216.346146 326.922943,215.759521 328.809235,214.733139 
	C335.721100,210.972275 342.623047,207.193253 349.528717,203.421066 
	C349.359009,202.714661 349.189331,202.008240 349.019623,201.301819 
	C344.179077,200.872467 339.341064,200.109985 334.497467,200.072769 
	C315.836670,199.929367 297.172302,200.152847 278.513580,199.909637 
	C274.637238,199.859100 270.779236,198.399078 266.912781,197.588638 
	C266.897034,196.931747 266.881287,196.274872 266.865509,195.617996 
	C268.181458,194.839142 269.423431,193.563171 270.824249,193.354797 
	C299.145355,189.141983 327.471832,184.183624 356.060272,191.276749 
	C362.501495,192.874863 368.804382,195.089951 375.294006,196.421021 
	C387.658447,198.957031 398.476318,195.986374 406.660248,185.925903 
	C426.518433,161.514465 435.586578,133.870743 430.948608,102.365189 
	C429.944275,95.542900 427.287476,89.224556 421.986084,84.406235 
	C416.200165,79.147552 409.329346,77.178802 402.150055,80.196709 
	C396.261505,82.672050 390.863403,86.410522 385.472900,89.933388 
	C382.801361,91.679337 381.074127,94.204628 381.761475,97.990005 
	C382.018433,99.405167 380.506439,101.141525 379.800964,102.731430 
	C378.261292,101.711823 375.765045,100.981804 375.353027,99.620842 
	C373.834991,94.606339 372.426575,89.424324 372.055695,84.228310 
	C371.496399,76.392540 370.425751,74.339684 362.959198,72.054138 
	C338.648376,64.612495 313.707550,61.746807 288.451477,63.657940 
	C271.418701,64.946815 254.420670,67.417053 237.591171,70.398094 
	C227.641373,72.160507 225.365295,77.476959 228.542542,87.146973 
	C248.878708,79.500320 270.145142,77.146278 291.664551,77.073807 
	C312.820038,77.002556 334.152679,76.565590 353.650177,86.623505 
	C353.618134,87.354134 353.586121,88.084770 353.554077,88.815399 
	C350.412781,88.815399 347.270111,88.753723 344.130432,88.825256 
	C321.007599,89.352043 297.865326,89.493141 274.770782,90.613358 
	C262.006439,91.232506 249.114395,92.571274 236.669785,95.338768 
	C227.192917,97.446281 218.531906,98.789955 208.694443,96.595345 
	C198.286438,94.273453 189.703232,100.035736 183.517944,108.564911 
	C165.873291,132.895920 172.653671,175.627716 196.939316,193.233398 
	C207.184723,200.660767 218.338028,201.889313 229.975708,197.073456 
	C232.772446,195.916122 235.099747,193.624329 238.152481,191.499634 
	C238.904526,192.056030 240.354431,192.846298 241.446671,193.980865 
	C251.444199,204.365829 263.445801,211.959991 276.802521,216.768295 
	C288.171204,220.860886 292.580048,228.528900 292.933472,239.716644 
	C293.379974,253.851303 293.761139,267.988953 294.349152,282.117859 
	C294.646118,289.252380 291.777100,294.084106 285.363464,297.320496 
	C274.585999,302.758789 263.988312,308.553345 253.315002,314.198029 
	C253.373016,314.694885 253.431015,315.191711 253.489014,315.688538 
	C267.159515,315.688538 280.830048,315.688538 295.000549,315.688538 
z"/>
<path fill="#0022F7" opacity="1.000000" stroke="none" 
	d="
M71.061066,250.422760 
	C70.742584,245.875504 70.128700,241.745178 70.042618,237.603882 
	C69.912804,231.359085 72.083992,228.959732 78.350899,227.881714 
	C80.643532,227.487335 83.029625,226.887543 85.282570,227.152145 
	C91.924538,227.932190 96.504158,225.020111 100.821503,220.286316 
	C106.424423,214.142899 112.544548,208.455002 118.632164,202.774796 
	C123.776016,197.975204 125.907303,197.724762 131.740463,201.883804 
	C138.235306,206.514648 144.778748,211.225082 150.528931,216.710266 
	C156.069183,221.995193 161.929504,223.930588 169.421997,222.999146 
	C182.496475,221.373734 182.699875,223.788284 182.098770,233.347382 
	C181.106613,249.125565 191.457397,257.831970 200.374680,267.660522 
	C212.248474,280.747711 212.367691,281.293152 200.844437,294.824463 
	C195.556885,301.033386 190.330139,307.294128 184.377548,314.360260 
	C189.073242,318.853119 194.243301,322.867218 198.258072,327.818176 
	C209.734421,341.970581 219.082367,357.468140 225.534363,374.597198 
	C226.116806,376.143494 226.936432,377.789459 226.859070,379.350159 
	C226.747696,381.597473 226.529785,385.147858 225.251297,385.735443 
	C223.104660,386.721985 219.524155,386.735870 217.542755,385.526947 
	C211.879166,382.071228 206.725555,377.782227 201.349197,373.851257 
	C200.179031,372.995636 198.916443,372.266479 197.521133,371.365936 
	C195.913788,380.555847 194.650223,389.407532 192.693939,398.103363 
	C191.986938,401.246063 189.619553,404.015259 188.009827,406.954895 
	C185.769196,404.519836 183.028229,402.382782 181.370850,399.600250 
	C172.094742,384.027008 163.202942,368.224701 153.913574,352.659576 
	C150.407349,346.784637 150.027374,346.974365 144.424286,351.045990 
	C142.539383,352.415680 140.406967,353.524506 138.767883,355.138641 
	C132.363663,361.445343 125.882446,360.535248 119.137169,355.807312 
	C115.344200,353.148682 111.433907,350.657501 106.643486,347.470123 
	C99.319740,358.778839 92.116028,369.927368 84.885139,381.058228 
	C80.445175,387.892822 76.081253,394.782745 71.411911,401.458069 
	C70.343788,402.985107 68.158539,403.730713 66.487434,404.835968 
	C65.446983,403.046173 63.731808,401.343719 63.486900,399.450989 
	C62.590500,392.523224 62.199512,385.530701 61.579170,378.566040 
	C61.451931,377.137543 61.156223,375.724060 60.862556,373.811096 
	C55.605568,377.186981 50.864265,380.510529 45.850307,383.353119 
	C42.535709,385.232239 38.202469,388.966888 35.214649,385.494385 
	C33.410759,383.397858 34.319740,377.785431 35.637459,374.383270 
	C42.381397,356.971741 53.299526,342.051575 64.772926,327.513977 
	C68.003342,323.420807 72.753609,320.039948 72.015594,313.892242 
	C71.769096,311.838867 71.409744,309.576660 70.348602,307.881531 
	C65.492287,300.123718 60.556374,292.399963 55.259232,284.940796 
	C52.731014,281.380707 52.710258,278.426544 55.045349,274.959045 
	C60.430500,266.962250 65.690926,258.881470 71.061066,250.422760 
M93.971542,331.283997 
	C95.983673,332.351654 98.118439,333.239899 99.987343,334.517090 
	C109.566612,341.063477 119.077423,347.710052 128.564651,354.288635 
	C142.995483,341.832184 156.481995,329.281097 176.994507,331.428345 
	C176.994507,326.056488 176.807312,321.580627 177.078094,317.132629 
	C177.202606,315.087524 177.781555,312.795319 178.913589,311.131775 
	C185.278198,301.779175 191.747635,292.490479 198.472153,283.395020 
	C200.355438,280.847717 200.180206,279.094849 198.456146,276.809143 
	C192.247772,268.578278 186.351578,260.099579 179.875092,252.088318 
	C176.525681,247.945190 174.780243,243.709290 174.943054,238.430710 
	C175.048523,235.010681 174.601288,231.573608 174.417648,228.417938 
	C173.467453,228.071289 173.162323,227.874527 172.849625,227.861664 
	C171.852829,227.820740 170.824326,227.692963 169.859100,227.872742 
	C157.552032,230.165085 147.839371,225.349503 139.376404,216.924149 
	C137.849625,215.404129 136.083038,214.119171 134.387314,212.776001 
	C131.452850,210.451660 128.487213,208.166718 125.360054,205.729156 
	C120.954338,210.203629 116.973969,213.981720 113.296753,218.034836 
	C105.201172,226.958084 95.706512,232.663086 83.192009,231.913834 
	C79.650047,231.701782 79.721443,234.132935 79.731850,236.581680 
	C79.759392,243.065002 79.973915,249.481949 76.468788,255.476593 
	C71.771530,263.510101 67.696762,271.907715 62.996349,279.939270 
	C61.279980,282.872009 61.488411,284.806763 63.476818,287.410339 
	C67.615196,292.828949 71.803406,298.288391 75.169945,304.188263 
	C77.217865,307.777283 78.341171,312.149689 78.848473,316.296417 
	C79.464645,321.332977 78.994789,326.502411 78.994789,332.115051 
	C84.243309,331.801483 88.694595,331.535522 93.971542,331.283997 
M184.149963,328.110291 
	C183.070038,338.800842 182.850235,338.964325 171.883514,338.435669 
	C170.068237,338.348206 168.239136,338.551086 166.416290,338.616089 
	C161.835037,338.779480 157.450272,339.341766 155.636642,342.907043 
	C166.127243,358.726776 176.189896,373.901123 187.066437,390.302856 
	C187.906586,383.824921 188.689026,378.772614 189.195358,373.692810 
	C190.417130,361.435608 191.727875,360.715393 202.757629,366.498047 
	C206.576004,368.499939 210.435745,370.422913 214.276596,372.381958 
	C214.540710,371.991638 214.804840,371.601349 215.068954,371.211060 
	C206.863831,354.781769 197.394302,339.156677 185.404846,324.272736 
	C184.810242,325.845337 184.532242,326.580597 184.149963,328.110291 
M67.514267,335.059021 
	C60.708519,345.912842 53.852028,356.735474 47.145767,367.650452 
	C45.996460,369.521027 45.487938,371.785339 44.683399,373.867767 
	C45.115028,374.099701 45.546661,374.331635 45.978294,374.563568 
	C50.100780,372.143707 54.140842,369.567596 58.364346,367.339172 
	C65.357300,363.649506 67.396591,364.846405 68.101593,372.672546 
	C68.593597,378.134247 69.121857,383.592682 69.725792,390.032196 
	C74.979988,380.914520 79.336723,372.704895 84.318153,364.893616 
	C89.244781,357.168243 94.802177,349.845123 100.747055,341.402344 
	C97.456749,341.010529 95.712105,340.696167 93.956635,340.614594 
	C89.468689,340.405975 84.974594,340.333099 80.485466,340.145721 
	C75.923401,339.955383 72.842690,338.084045 72.550400,333.044098 
	C72.498230,332.144684 72.054626,331.267975 71.586685,329.688568 
	C70.111931,331.641510 69.034538,333.068237 67.514267,335.059021 
z"/>
<path fill="#F3F1EA" opacity="1.000000" stroke="none" 
	d="
M232.230377,169.608429 
	C233.103653,172.724716 233.838074,175.454803 234.660645,178.158051 
	C235.937286,182.353561 234.264557,184.296921 230.067413,185.002121 
	C206.709747,188.926590 188.633698,176.592163 183.187271,152.446091 
	C180.668198,141.278091 179.918945,130.001266 185.484894,119.302391 
	C192.557312,105.707748 209.667450,102.358490 221.007858,112.615967 
	C222.834839,114.268478 223.740982,117.426521 224.186172,120.039665 
	C226.974335,136.406006 229.511078,152.815186 232.230377,169.608429 
M194.075409,139.331650 
	C194.685837,149.720642 196.085876,159.928604 203.058990,168.269791 
	C208.279617,174.514664 214.987900,178.226532 223.789368,179.320114 
	C223.189026,176.906708 222.859711,175.292114 222.385452,173.721268 
	C217.706223,158.222824 214.674393,142.395340 214.718842,126.208359 
	C214.735443,120.158821 212.361740,117.259163 207.257355,115.150978 
	C201.027298,112.577858 197.142853,113.874245 195.716858,120.606689 
	C194.492554,126.386948 194.570587,132.443039 194.075409,139.331650 
z"/>
<path fill="#F1EFE9" opacity="1.000000" stroke="none" 
	d="
M369.131897,170.305023 
	C373.725647,154.708679 377.653168,139.197769 377.094696,123.422585 
	C376.688385,111.944839 382.467194,105.439545 389.703949,98.563019 
	C398.268158,90.425171 411.061646,93.273743 416.283447,101.419495 
	C419.747406,106.823082 422.731140,113.387520 423.270721,119.661003 
	C425.302948,143.291306 417.930054,163.942902 400.205261,180.131485 
	C391.902985,187.714172 383.805145,187.707123 374.701996,181.899185 
	C370.466003,179.196594 368.218323,175.833145 369.131897,170.305023 
M396.890533,169.348053 
	C404.625397,159.080795 409.541840,147.450073 411.871002,134.962616 
	C413.407074,126.727165 414.244110,118.138214 413.749451,109.805183 
	C413.167999,100.010826 404.360443,96.588554 396.396698,102.337494 
	C389.850739,107.062950 385.782715,113.748863 385.160889,121.589760 
	C383.845459,138.176193 382.461212,154.680542 378.105530,170.834946 
	C376.782135,175.742981 380.188049,179.035690 384.929871,177.233414 
	C389.097229,175.649490 392.639374,172.420670 396.890533,169.348053 
z"/>
<path fill="#F0EEE7" opacity="1.000000" stroke="none" 
	d="
M320.049255,102.971008 
	C324.753143,103.697533 329.050964,104.211525 333.225464,105.230659 
	C334.548828,105.553734 335.543182,107.224228 336.688110,108.278122 
	C335.532318,109.277229 334.484802,110.950523 333.201630,111.156616 
	C328.134399,111.970444 322.999420,112.395378 317.878540,112.836174 
	C293.562012,114.929245 269.241699,116.977531 244.923874,119.055260 
	C243.934357,119.139793 242.891678,119.653130 241.987167,119.453323 
	C240.321228,119.085304 238.739655,118.335342 237.122925,117.744537 
	C238.008774,116.149963 238.528458,113.648041 239.843628,113.117310 
	C245.657013,110.771362 251.582855,108.476189 257.679749,107.102478 
	C278.073395,102.507515 298.731689,100.972458 320.049255,102.971008 
z"/>
<path fill="#EDEBE4" opacity="1.000000" stroke="none" 
	d="
M388.100342,26.049549 
	C391.172394,26.812788 393.827423,27.577307 396.482422,28.341825 
	C396.406036,28.965504 396.329620,29.589182 396.253235,30.212858 
	C394.442657,30.545570 392.630920,30.872339 390.821686,31.212069 
	C384.393646,32.419060 380.913116,37.361126 383.263184,42.634842 
	C384.081818,44.471844 386.322815,46.594814 388.127045,46.811069 
	C389.890015,47.022381 392.321411,45.330849 393.720367,43.799519 
	C394.946014,42.457882 395.393219,40.222664 395.728943,38.302547 
	C396.054291,36.441864 395.799500,34.479736 395.799500,31.874269 
	C399.937012,33.550423 401.895752,35.933975 402.111694,39.779297 
	C402.478973,46.319553 397.976837,52.795795 392.099640,54.127232 
	C385.020416,55.730965 377.819672,52.229122 375.156891,45.887665 
	C372.444275,39.427368 374.708893,31.928009 380.712585,28.498240 
	C382.815796,27.296719 385.347321,26.844961 388.100342,26.049549 
z"/>
<path fill="#ECEAE4" opacity="1.000000" stroke="none" 
	d="
M229.309479,234.286072 
	C234.702576,233.202957 236.252258,234.432617 236.334320,239.860214 
	C236.504547,251.119949 224.204178,259.222015 213.922699,254.622406 
	C207.471191,251.736191 205.625290,241.883926 210.082382,234.125107 
	C213.462830,228.240433 222.557861,225.865814 227.872604,229.647766 
	C228.565338,230.140701 228.498260,231.701416 228.138596,233.157532 
	C224.731812,234.062668 221.871353,234.282654 219.230072,235.161392 
	C215.156281,236.516724 213.134293,239.658752 213.676147,243.949829 
	C214.173904,247.891541 216.308273,251.171005 220.478561,251.386063 
	C225.167603,251.627899 226.637192,247.624390 227.807571,243.922501 
	C228.196869,242.691132 227.992477,241.284470 228.199890,239.980270 
	C228.503387,238.071640 228.933380,236.183151 229.309479,234.286072 
z"/>
<path fill="#EDEBE5" opacity="1.000000" stroke="none" 
	d="
M151.320953,42.787136 
	C152.757904,41.052109 154.085098,39.700665 155.412308,38.349228 
	C156.753555,39.888741 159.110260,41.332470 159.266037,42.983807 
	C160.083069,51.645325 160.570007,60.358852 160.591370,69.055733 
	C160.595322,70.661240 157.933868,72.273285 156.502640,73.882309 
	C154.894791,72.233246 152.022888,70.677299 151.893387,68.919334 
	C151.263321,60.366123 151.367172,51.758854 151.320953,42.787136 
z"/>
<path fill="#F0EEE7" opacity="1.000000" stroke="none" 
	d="
M398.683136,279.917023 
	C399.363098,276.485382 400.216217,272.793488 403.816406,273.371887 
	C406.064423,273.733063 408.964447,276.602203 409.621216,278.902771 
	C410.896881,283.371185 411.331146,288.269287 411.004486,292.911316 
	C410.875763,294.740570 407.866211,297.604980 406.009613,297.735352 
	C404.055481,297.872528 400.628662,295.671112 400.107330,293.845581 
	C398.878082,289.541046 398.993866,284.852417 398.683136,279.917023 
z"/>
<path fill="#ECEAE4" opacity="1.000000" stroke="none" 
	d="
M401.661682,224.849854 
	C406.428406,221.789124 408.804077,222.534576 409.262634,227.541611 
	C409.753998,232.907028 409.606110,238.385178 409.093079,243.752548 
	C408.954559,245.201233 406.479462,246.426544 405.076904,247.754364 
	C403.775452,246.290863 401.443237,244.887085 401.354370,243.353378 
	C401.005402,237.327423 401.362915,231.260544 401.661682,224.849854 
z"/>
<path fill="#EAE8E2" opacity="1.000000" stroke="none" 
	d="
M126.517426,87.836807 
	C125.107742,87.609512 124.024246,87.611778 123.189735,87.157082 
	C122.114044,86.570984 121.237701,85.619003 120.275497,84.824600 
	C121.201897,83.786125 121.950012,82.137283 123.083069,81.806328 
	C131.677826,79.295815 140.356033,79.125404 148.956329,81.839470 
	C149.852142,82.122169 150.468109,83.291740 151.213913,84.049828 
	C150.372620,84.708481 149.582001,85.855202 148.682037,85.948593 
	C141.451096,86.699013 134.199539,87.250755 126.517426,87.836807 
z"/>
<path fill="#EFEDE6" opacity="1.000000" stroke="none" 
	d="
M158.723343,83.640259 
	C168.991699,78.604050 179.247314,75.912773 190.133438,79.265366 
	C190.306427,79.739883 190.479401,80.214401 190.652374,80.688911 
	C189.424026,81.529869 188.289627,82.881912 186.951889,83.127823 
	C178.994843,84.590530 171.011490,85.973244 162.982376,86.919556 
	C161.623260,87.079742 159.999237,84.992317 158.723343,83.640259 
z"/>
<path fill="#F0EEE7" opacity="1.000000" stroke="none" 
	d="
M152.719421,118.691864 
	C148.297714,113.501900 147.594620,103.817368 150.810028,98.337837 
	C152.442154,95.556458 154.889374,95.008118 155.892838,97.984306 
	C157.761566,103.526863 159.204895,109.368469 159.657822,115.176643 
	C159.947403,118.889832 156.457382,119.701935 152.719421,118.691864 
z"/>
<path fill="#EAE8E1" opacity="1.000000" stroke="none" 
	d="
M409.205841,261.808044 
	C411.242737,260.673889 413.338013,259.296844 415.442627,259.282471 
	C421.887939,259.238434 428.343842,259.617737 434.778931,260.070160 
	C436.220306,260.171509 437.593536,261.241913 439.123352,261.921844 
	C434.157349,268.698547 417.343018,268.568085 409.205841,261.808044 
z"/>
<path fill="#E7E5DF" opacity="1.000000" stroke="none" 
	d="
M382.452240,258.040039 
	C388.941010,257.927673 395.002319,257.755890 400.836884,260.850159 
	C396.434296,264.710999 382.909821,266.335236 378.400482,263.736938 
	C377.520416,263.229828 376.509766,262.011932 376.532959,261.148041 
	C376.554565,260.343567 377.747864,259.339233 378.655701,258.852539 
	C379.634521,258.327820 380.880829,258.302002 382.452240,258.040039 
z"/>
<path fill="#000104" opacity="1.000000" stroke="none" 
	d="
M93.558716,331.276794 
	C88.694595,331.535522 84.243309,331.801483 78.994789,332.115051 
	C78.994789,326.502411 79.464645,321.332977 78.848473,316.296417 
	C78.341171,312.149689 77.217865,307.777283 75.169945,304.188263 
	C71.803406,298.288391 67.615196,292.828949 63.476818,287.410339 
	C61.488411,284.806763 61.279980,282.872009 62.996349,279.939270 
	C67.696762,271.907715 71.771530,263.510101 76.468788,255.476593 
	C79.973915,249.481949 79.759392,243.065002 79.731850,236.581680 
	C79.721443,234.132935 79.650047,231.701782 83.192009,231.913834 
	C95.706512,232.663086 105.201172,226.958084 113.296753,218.034836 
	C116.973969,213.981720 120.954338,210.203629 125.360054,205.729156 
	C128.487213,208.166718 131.452850,210.451660 134.387314,212.776001 
	C136.083038,214.119171 137.849625,215.404129 139.376404,216.924149 
	C147.839371,225.349503 157.552032,230.165085 169.859100,227.872742 
	C170.824326,227.692963 171.852829,227.820740 172.849625,227.861664 
	C173.162323,227.874527 173.467453,228.071289 174.417648,228.417938 
	C174.601288,231.573608 175.048523,235.010681 174.943054,238.430710 
	C174.780243,243.709290 176.525681,247.945190 179.875092,252.088318 
	C186.351578,260.099579 192.247772,268.578278 198.456146,276.809143 
	C200.180206,279.094849 200.355438,280.847717 198.472153,283.395020 
	C191.747635,292.490479 185.278198,301.779175 178.913589,311.131775 
	C177.781555,312.795319 177.202606,315.087524 177.078094,317.132629 
	C176.807312,321.580627 176.994507,326.056488 176.994507,331.428345 
	C156.481995,329.281097 142.995483,341.832184 128.564651,354.288635 
	C119.077423,347.710052 109.566612,341.063477 99.987343,334.517090 
	C98.118439,333.239899 95.983673,332.351654 93.558716,331.276794 
M150.774170,332.360657 
	C168.934952,321.932648 178.385574,305.672363 180.724304,285.419281 
	C182.779160,267.624603 177.854752,252.009903 162.504120,241.163055 
	C160.477829,239.731247 157.494385,239.654037 154.954239,238.949463 
	C156.286911,241.131348 157.175385,243.842148 159.031387,245.400909 
	C165.990936,251.245834 171.285645,258.065796 173.374939,267.041626 
	C177.646576,285.393341 172.198654,301.386658 160.522751,315.314240 
	C137.000641,343.372498 105.778481,333.191071 91.754662,309.747711 
	C80.974617,291.726959 82.726341,273.198212 94.228973,256.062317 
	C105.197906,239.721527 121.206856,234.336975 140.410080,237.326736 
	C143.140961,237.751907 146.056320,236.992401 148.886292,236.781204 
	C148.911667,236.153214 148.937042,235.525238 148.962418,234.897263 
	C147.568863,234.106155 146.232819,233.183823 144.772980,232.543915 
	C127.037743,224.769669 104.473076,229.950104 91.962181,244.778427 
	C79.694023,259.319061 76.750290,276.221863 80.092552,294.466522 
	C86.398911,328.891602 119.050468,346.674377 150.774170,332.360657 
M134.884125,264.676727 
	C133.893219,262.579926 132.902313,260.483154 131.911392,258.386322 
	C129.956238,259.583801 127.514053,260.382843 126.143280,262.058441 
	C122.890427,266.034576 120.050659,270.365204 117.264297,274.694397 
	C116.599030,275.727997 116.796669,277.316956 116.597435,278.650513 
	C118.027733,278.705658 119.609070,279.171753 120.851295,278.715210 
	C122.519203,278.102173 123.925102,276.776276 125.847900,275.484741 
	C125.257202,279.048370 124.398270,281.977875 124.359619,284.918091 
	C124.270935,291.664490 122.961281,296.971222 114.585472,297.204834 
	C113.307793,297.240509 111.199348,299.344727 111.088608,300.631104 
	C110.972000,301.985657 112.609444,303.690247 113.824837,304.894287 
	C114.715378,305.776489 116.158447,306.579559 117.361641,306.588806 
	C124.464493,306.643555 131.595795,306.783356 138.662048,306.210388 
	C142.173157,305.925690 143.558044,302.295532 141.424332,299.484772 
	C140.162750,297.822906 137.787888,296.171295 135.819992,296.051361 
	C131.500778,295.788025 131.083237,293.959747 131.665207,290.256866 
	C132.954285,282.054993 133.810104,273.785034 134.884125,264.676727 
M150.014099,314.934906 
	C160.257233,305.952850 164.391968,294.063080 165.683762,281.017120 
	C165.916443,278.667267 164.244919,276.128845 163.452560,273.677460 
	C162.961365,273.782898 162.470169,273.888306 161.978973,273.993744 
	C161.668808,274.874725 161.091217,275.754883 161.088516,276.636810 
	C161.046661,290.282776 155.587402,301.362366 145.505219,310.394958 
	C144.181946,311.580444 143.513733,313.497131 142.542130,315.075195 
	C142.805496,315.485870 143.068848,315.896545 143.332199,316.307220 
	C145.329727,315.973663 147.327271,315.640137 150.014099,314.934906 
M121.109917,250.660004 
	C120.115013,249.828308 118.737984,248.086105 118.188843,248.316559 
	C115.210785,249.566376 111.734962,250.686615 109.718048,252.982529 
	C102.033058,261.730499 98.085884,272.167725 97.894173,283.866150 
	C97.866196,285.573425 98.799904,287.296478 99.288620,289.012238 
	C99.907135,288.982513 100.525650,288.952789 101.144165,288.923065 
	C101.492424,286.995026 101.896507,285.075134 102.179924,283.137604 
	C104.096039,270.038116 109.049408,258.674255 121.109917,250.660004 
z"/>
<path fill="#000104" opacity="1.000000" stroke="none" 
	d="
M184.202103,327.713074 
	C184.532242,326.580597 184.810242,325.845337 185.404846,324.272736 
	C197.394302,339.156677 206.863831,354.781769 215.068954,371.211060 
	C214.804840,371.601349 214.540710,371.991638 214.276596,372.381958 
	C210.435745,370.422913 206.576004,368.499939 202.757629,366.498047 
	C191.727875,360.715393 190.417130,361.435608 189.195358,373.692810 
	C188.689026,378.772614 187.906586,383.824921 187.066437,390.302856 
	C176.189896,373.901123 166.127243,358.726776 155.636642,342.907043 
	C157.450272,339.341766 161.835037,338.779480 166.416290,338.616089 
	C168.239136,338.551086 170.068237,338.348206 171.883514,338.435669 
	C182.850235,338.964325 183.070038,338.800842 184.202103,327.713074 
z"/>
<path fill="#000105" opacity="1.000000" stroke="none" 
	d="
M67.735703,334.776978 
	C69.034538,333.068237 70.111931,331.641510 71.586685,329.688568 
	C72.054626,331.267975 72.498230,332.144684 72.550400,333.044098 
	C72.842690,338.084045 75.923401,339.955383 80.485466,340.145721 
	C84.974594,340.333099 89.468689,340.405975 93.956635,340.614594 
	C95.712105,340.696167 97.456749,341.010529 100.747055,341.402344 
	C94.802177,349.845123 89.244781,357.168243 84.318153,364.893616 
	C79.336723,372.704895 74.979988,380.914520 69.725792,390.032196 
	C69.121857,383.592682 68.593597,378.134247 68.101593,372.672546 
	C67.396591,364.846405 65.357300,363.649506 58.364346,367.339172 
	C54.140842,369.567596 50.100780,372.143707 45.978294,374.563568 
	C45.546661,374.331635 45.115028,374.099701 44.683399,373.867767 
	C45.487938,371.785339 45.996460,369.521027 47.145767,367.650452 
	C53.852028,356.735474 60.708519,345.912842 67.735703,334.776978 
z"/>
<path fill="#050505" opacity="1.000000" stroke="none" 
	d="
M194.074066,138.854401 
	C194.570587,132.443039 194.492554,126.386948 195.716858,120.606689 
	C197.142853,113.874245 201.027298,112.577858 207.257355,115.150978 
	C212.361740,117.259163 214.735443,120.158821 214.718842,126.208359 
	C214.674393,142.395340 217.706223,158.222824 222.385452,173.721268 
	C222.859711,175.292114 223.189026,176.906708 223.789368,179.320114 
	C214.987900,178.226532 208.279617,174.514664 203.058990,168.269791 
	C196.085876,159.928604 194.685837,149.720642 194.074066,138.854401 
z"/>
<path fill="#040403" opacity="1.000000" stroke="none" 
	d="
M396.674072,169.633179 
	C392.639374,172.420670 389.097229,175.649490 384.929871,177.233414 
	C380.188049,179.035690 376.782135,175.742981 378.105530,170.834946 
	C382.461212,154.680542 383.845459,138.176193 385.160889,121.589760 
	C385.782715,113.748863 389.850739,107.062950 396.396698,102.337494 
	C404.360443,96.588554 413.167999,100.010826 413.749451,109.805183 
	C414.244110,118.138214 413.407074,126.727165 411.871002,134.962616 
	C409.541840,147.450073 404.625397,159.080795 396.674072,169.633179 
z"/>
<path fill="#010101" opacity="1.000000" stroke="none" 
	d="
M229.039551,234.040253 
	C228.933380,236.183151 228.503387,238.071640 228.199890,239.980270 
	C227.992477,241.284470 228.196869,242.691132 227.807571,243.922501 
	C226.637192,247.624390 225.167603,251.627899 220.478561,251.386063 
	C216.308273,251.171005 214.173904,247.891541 213.676147,243.949829 
	C213.134293,239.658752 215.156281,236.516724 219.230072,235.161392 
	C221.871353,234.282654 224.731812,234.062668 227.856232,233.431564 
	C228.402130,233.475220 228.585876,233.634827 229.039551,234.040253 
z"/>
<path fill="#0022F5" opacity="1.000000" stroke="none" 
	d="
M150.453751,332.554016 
	C119.050468,346.674377 86.398911,328.891602 80.092552,294.466522 
	C76.750290,276.221863 79.694023,259.319061 91.962181,244.778427 
	C104.473076,229.950104 127.037743,224.769669 144.772980,232.543915 
	C146.232819,233.183823 147.568863,234.106155 148.962418,234.897263 
	C148.937042,235.525238 148.911667,236.153214 148.886292,236.781204 
	C146.056320,236.992401 143.140961,237.751907 140.410080,237.326736 
	C121.206856,234.336975 105.197906,239.721527 94.228973,256.062317 
	C82.726341,273.198212 80.974617,291.726959 91.754662,309.747711 
	C105.778481,333.191071 137.000641,343.372498 160.522751,315.314240 
	C172.198654,301.386658 177.646576,285.393341 173.374939,267.041626 
	C171.285645,258.065796 165.990936,251.245834 159.031387,245.400909 
	C157.175385,243.842148 156.286911,241.131348 154.954239,238.949463 
	C157.494385,239.654037 160.477829,239.731247 162.504120,241.163055 
	C177.854752,252.009903 182.779160,267.624603 180.724304,285.419281 
	C178.385574,305.672363 168.934952,321.932648 150.453751,332.554016 
z"/>
<path fill="#0022F8" opacity="1.000000" stroke="none" 
	d="
M134.863373,265.109802 
	C133.810104,273.785034 132.954285,282.054993 131.665207,290.256866 
	C131.083237,293.959747 131.500778,295.788025 135.819992,296.051361 
	C137.787888,296.171295 140.162750,297.822906 141.424332,299.484772 
	C143.558044,302.295532 142.173157,305.925690 138.662048,306.210388 
	C131.595795,306.783356 124.464493,306.643555 117.361641,306.588806 
	C116.158447,306.579559 114.715378,305.776489 113.824837,304.894287 
	C112.609444,303.690247 110.972000,301.985657 111.088608,300.631104 
	C111.199348,299.344727 113.307793,297.240509 114.585472,297.204834 
	C122.961281,296.971222 124.270935,291.664490 124.359619,284.918091 
	C124.398270,281.977875 125.257202,279.048370 125.847900,275.484741 
	C123.925102,276.776276 122.519203,278.102173 120.851295,278.715210 
	C119.609070,279.171753 118.027733,278.705658 116.597435,278.650513 
	C116.796669,277.316956 116.599030,275.727997 117.264297,274.694397 
	C120.050659,270.365204 122.890427,266.034576 126.143280,262.058441 
	C127.514053,260.382843 129.956238,259.583801 131.911407,258.386353 
	C132.902313,260.483154 133.893219,262.579926 134.863373,265.109802 
z"/>
<path fill="#0021F0" opacity="1.000000" stroke="none" 
	d="
M149.669449,315.120728 
	C147.327271,315.640137 145.329727,315.973663 143.332199,316.307220 
	C143.068848,315.896545 142.805496,315.485870 142.542130,315.075195 
	C143.513733,313.497131 144.181946,311.580444 145.505219,310.394958 
	C155.587402,301.362366 161.046661,290.282776 161.088516,276.636810 
	C161.091217,275.754883 161.668808,274.874725 161.978973,273.993744 
	C162.470169,273.888306 162.961365,273.782898 163.452560,273.677460 
	C164.244919,276.128845 165.916443,278.667267 165.683762,281.017120 
	C164.391968,294.063080 160.257233,305.952850 149.669449,315.120728 
z"/>
<path fill="#0021EF" opacity="1.000000" stroke="none" 
	d="
M120.783447,250.816223 
	C109.049408,258.674255 104.096039,270.038116 102.179924,283.137604 
	C101.896507,285.075134 101.492424,286.995026 101.144165,288.923065 
	C100.525650,288.952789 99.907135,288.982513 99.288620,289.012238 
	C98.799904,287.296478 97.866196,285.573425 97.894173,283.866150 
	C98.085884,272.167725 102.033058,261.730499 109.718048,252.982529 
	C111.734962,250.686615 115.210785,249.566376 118.188843,248.316559 
	C118.737984,248.086105 120.115013,249.828308 120.783447,250.816223 
z"/>
</svg>